<?xml version="1.0" encoding="UTF-8"?>
<svg width="140px" height="140px" viewBox="0 0 140 140" version="1.1" xmlns="http://www.w3.org/2000/svg" xmlns:xlink="http://www.w3.org/1999/xlink">
    <!-- Generator: Sketch 49.3 (51167) - http://www.bohemiancoding.com/sketch -->
    <title>logo-中英文</title>
    <desc>Created with Sketch.</desc>
    <defs>
        <radialGradient cx="32.5512454%" cy="0.359013728%" fx="32.5512454%" fy="0.359013728%" r="101.776585%" gradientTransform="translate(0.325512,0.003590),scale(0.841310,1.000000),rotate(78.241936),translate(-0.325512,-0.003590)" id="radialGradient-1">
            <stop stop-color="#007DA3" offset="0%"></stop>
            <stop stop-color="#004E72" offset="100%"></stop>
        </radialGradient>
        <linearGradient x1="90.0441012%" y1="3.76940009%" x2="0%" y2="100%" id="linearGradient-2">
            <stop stop-color="#008EB0" offset="0%"></stop>
            <stop stop-color="#005175" offset="100%"></stop>
        </linearGradient>
        <linearGradient x1="50%" y1="0%" x2="0%" y2="66.3220434%" id="linearGradient-3">
            <stop stop-color="#004E72" offset="0%"></stop>
            <stop stop-color="#007DA3" offset="100%"></stop>
        </linearGradient>
        <linearGradient x1="80.8065686%" y1="0%" x2="2.20955461%" y2="97.265625%" id="linearGradient-4">
            <stop stop-color="#00678C" offset="0%"></stop>
            <stop stop-color="#007DA3" offset="100%"></stop>
        </linearGradient>
        <radialGradient cx="100%" cy="100%" fx="100%" fy="100%" r="194.758012%" gradientTransform="translate(1.000000,1.000000),scale(1.000000,0.594311),rotate(-120.723498),translate(-1.000000,-1.000000)" id="radialGradient-5">
            <stop stop-color="#00A8E1" offset="0%"></stop>
            <stop stop-color="#1EFFFA" offset="100%"></stop>
        </radialGradient>
        <linearGradient x1="0%" y1="0%" x2="97.8432681%" y2="97.8432681%" id="linearGradient-6">
            <stop stop-color="#53FFFB" offset="0%"></stop>
            <stop stop-color="#02ADE2" offset="100%"></stop>
        </linearGradient>
        <radialGradient cx="0%" cy="0%" fx="0%" fy="0%" r="191.551093%" gradientTransform="translate(0.000000,0.000000),scale(1.000000,0.241040),rotate(74.868993),translate(-0.000000,-0.000000)" id="radialGradient-7">
            <stop stop-color="#FFFFFF" offset="0%"></stop>
            <stop stop-color="#FFFFFF" stop-opacity="0" offset="100%"></stop>
        </radialGradient>
        <polygon id="path-8" points="16.2630647 36.2256291 9.66710072 8.86107678 10.1829557 8.86107678"></polygon>
        <radialGradient cx="30.3681599%" cy="89.1417265%" fx="30.3681599%" fy="89.1417265%" r="2275.12533%" gradientTransform="translate(0.303682,0.891417),scale(0.012973,1.000000),translate(-0.303682,-0.891417)" id="radialGradient-9">
            <stop stop-color="#FFFFFF" offset="0%"></stop>
            <stop stop-color="#02D7D3" stop-opacity="0.202134284" offset="100%"></stop>
        </radialGradient>
        <radialGradient cx="99.6996929%" cy="0.205814873%" fx="99.6996929%" fy="0.205814873%" r="130.099698%" gradientTransform="translate(0.996997,0.002058),scale(1.000000,0.781142),rotate(138.737360),translate(-0.996997,-0.002058)" id="radialGradient-10">
            <stop stop-color="#00A8E1" offset="0%"></stop>
            <stop stop-color="#1EFFFA" offset="100%"></stop>
        </radialGradient>
        <linearGradient x1="0%" y1="100%" x2="100%" y2="0%" id="linearGradient-11">
            <stop stop-color="#12FFFB" offset="0%"></stop>
            <stop stop-color="#006D92" offset="100%"></stop>
        </linearGradient>
        <radialGradient cx="0%" cy="100%" fx="0%" fy="100%" r="71.7388238%" gradientTransform="translate(0.000000,1.000000),scale(0.889475,1.000000),rotate(38.410653),translate(-0.000000,-1.000000)" id="radialGradient-12">
            <stop stop-color="#FFFFFF" offset="0%"></stop>
            <stop stop-color="#FFFFFF" stop-opacity="0" offset="100%"></stop>
        </radialGradient>
        <polygon id="path-13" points="19.1425387 41.07101 55.8388489 8.86107678 19.3998591 41.5015121"></polygon>
        <linearGradient x1="100%" y1="0%" x2="0%" y2="100%" id="linearGradient-14">
            <stop stop-color="#00D7D3" stop-opacity="0.402400362" offset="0%"></stop>
            <stop stop-color="#1EFFFA" offset="100%"></stop>
        </linearGradient>
        <linearGradient x1="100%" y1="0%" x2="0%" y2="100%" id="linearGradient-15">
            <stop stop-color="#02D7D3" offset="0%"></stop>
            <stop stop-color="#FFFFFF" offset="100%"></stop>
        </linearGradient>
        <radialGradient cx="20.7406089%" cy="79.1376023%" fx="20.7406089%" fy="79.1376023%" r="23.8968717%" gradientTransform="translate(0.207406,0.791376),scale(1.000000,0.584866),rotate(90.000000),translate(-0.207406,-0.791376)" id="radialGradient-16">
            <stop stop-color="#FFFFFF" stop-opacity="0.5" offset="0%"></stop>
            <stop stop-color="#FFFFFF" stop-opacity="0" offset="100%"></stop>
        </radialGradient>
        <polygon id="path-17" points="13.2617266 49.9314644 18.7060144 40.3671276 40.9019568 2.67238824 18.9852086 40.7890836"></polygon>
        <linearGradient x1="0%" y1="100%" x2="100%" y2="0%" id="linearGradient-18">
            <stop stop-color="#00D7D3" stop-opacity="0.402400362" offset="0%"></stop>
            <stop stop-color="#1EFFFA" offset="100%"></stop>
        </linearGradient>
        <linearGradient x1="0%" y1="100%" x2="100%" y2="0%" id="linearGradient-19">
            <stop stop-color="#02D7D3" offset="0%"></stop>
            <stop stop-color="#FFFFFF" offset="100%"></stop>
        </linearGradient>
        <radialGradient cx="77.4295509%" cy="21.2350683%" fx="77.4295509%" fy="21.2350683%" r="36.6207091%" gradientTransform="translate(0.774296,0.212351),scale(1.000000,0.586015),rotate(85.074615),translate(-0.774296,-0.212351)" id="radialGradient-20">
            <stop stop-color="#FFFFFF" stop-opacity="0.5" offset="0%"></stop>
            <stop stop-color="#FFFFFF" stop-opacity="0" offset="100%"></stop>
        </radialGradient>
        <polygon id="path-21" points="12.9825324 41.6329957 31.8281439 8.86107678 36.9932374 0.56260805 37.1328345 0.421956037 32.2469353 8.86107678"></polygon>
        <radialGradient cx="0%" cy="0%" fx="0%" fy="0%" r="287.573105%" gradientTransform="translate(0.000000,0.000000),scale(0.302316,1.000000),rotate(14.127703),translate(-0.000000,-0.000000)" id="radialGradient-22">
            <stop stop-color="#00F3EE" offset="0%"></stop>
            <stop stop-color="#009CBF" offset="100%"></stop>
        </radialGradient>
        <radialGradient cx="0%" cy="0%" fx="0%" fy="0%" r="285.151122%" gradientTransform="translate(0.000000,0.000000),scale(0.302316,1.000000),rotate(14.127703),translate(-0.000000,-0.000000)" id="radialGradient-23">
            <stop stop-color="#1EFFFA" offset="0%"></stop>
            <stop stop-color="#34CCFF" offset="100%"></stop>
        </radialGradient>
        <path d="M58.6854588,0 L53.8948091,6.59775848 L49.1041594,0 L43.1158473,0 L51.4994842,11.7301404 L51.4994842,19.5519313 L56.2901339,19.5519313 L56.2901339,11.7301404 L64.6737709,0 L58.6854588,0 Z M26.8276383,0 L22.5160536,19.5519313 L27.3067033,19.5519313 L30.755971,3.91038626 L35.8340597,3.91038626 L37.5586936,11.7301404 L31.3797536,11.7301404 L30.4196275,15.6425634 L38.4210106,15.6425634 L39.2843256,19.5519313 L44.0739772,19.5519313 L39.7623925,0 L26.8276383,0 Z M0,0 L0,19.5519313 L4.7906497,19.5519313 L4.7906497,3.91038626 L14.3719491,3.91038626 L14.3719491,8.79735075 L7.18597454,8.79735075 L7.18597454,10.7535622 L14.8520121,19.5519313 L20.5997937,19.5519313 L14.6374309,12.7087553 L19.1625988,12.7087553 L19.1625988,0 L0,0 Z" id="path-24"></path>
        <radialGradient cx="0%" cy="0%" fx="0%" fy="0%" r="325.023275%" gradientTransform="translate(0.000000,0.000000),scale(0.265661,1.000000),rotate(12.471845),translate(-0.000000,-0.000000)" id="radialGradient-25">
            <stop stop-color="#00F3EE" offset="0%"></stop>
            <stop stop-color="#009CBF" offset="100%"></stop>
        </radialGradient>
        <radialGradient cx="0%" cy="0%" fx="0%" fy="0%" r="322.285881%" gradientTransform="translate(0.000000,0.000000),scale(0.265661,1.000000),rotate(12.471845),translate(-0.000000,-0.000000)" id="radialGradient-26">
            <stop stop-color="#1EFFFA" offset="0%"></stop>
            <stop stop-color="#34CCFF" offset="100%"></stop>
        </radialGradient>
        <path d="M74.1119554,0 L74.1119554,1.94222083 L67.7595021,1.94222083 L67.7595021,4.36999687 L74.1119554,4.36999687 L74.1119554,6.79777291 L67.7595021,6.79777291 L67.7595021,9.22554895 L80.6996847,9.22554895 L80.6996847,10.5193513 L76.1323884,14.1751774 L73.8766793,12.3816578 L67.7595021,12.3816578 L73.0796817,16.6201501 L68.0634003,20.6360963 L65.8763134,20.6360963 L65.8763134,23.0638724 L71.0533667,23.0638724 L76.0990577,19.02466 L81.1702368,23.0638724 L85.8767381,23.0638724 L86.816862,20.6360963 L84.2533334,20.6360963 L79.153725,16.5786756 L84.6993776,12.1388802 L84.6993776,6.79777291 L78.3469243,6.79777291 L78.3469243,4.36999687 L83.7582734,4.36999687 L84.6993776,1.94222083 L78.3469243,1.94222083 L78.3469243,0 L74.1119554,0 Z M60.9364966,0 L60.9364966,1.94222083 L58.8190122,1.94222083 L58.8190122,4.36999687 L60.9364966,4.36999687 L60.9364966,12.0781858 L58.8190122,13.8383234 L58.8190122,17.2372099 L60.9364966,15.4770723 L60.9364966,20.6360963 L58.8190122,20.6360963 L58.8190122,23.0638724 L65.1714655,23.0638724 L65.1714655,11.956797 L67.28895,10.1956478 L67.28895,6.79777291 L65.1714655,8.55791054 L65.1714655,4.36999687 L67.28895,4.36999687 L67.28895,1.94222083 L65.1714655,1.94222083 L65.1714655,0 L60.9364966,0 Z M39.5263762,0 L39.5263762,1.45666562 L29.6447822,1.45666562 L29.6447822,3.88444166 L53.4076631,3.88444166 L54.3487673,1.45666562 L44.4671732,1.45666562 L44.4671732,0 L39.5263762,0 Z M0,0.485555208 L0,2.67055364 L10.8226982,2.67055364 L10.8226982,4.12721927 L0,4.12721927 L0,11.653325 L4.00067315,11.653325 L4.00067315,6.3122177 L10.8226982,6.3122177 L10.8226982,11.653325 L14.8223911,11.653325 L14.8223911,6.3122177 L21.6463768,6.3122177 L21.6463768,11.653325 L25.6450893,11.653325 L25.6450893,4.12721927 L14.8223911,4.12721927 L14.8223911,2.67055364 L25.6450893,2.67055364 L25.6450893,0.485555208 L0,0.485555208 Z M46.8199337,4.36999687 L46.8199337,6.07045167 L36.9373593,6.07045167 L36.9373593,4.36999687 L31.9975426,4.36999687 L32.512209,6.07045167 L29.1742301,6.07045167 L29.1742301,8.49721614 L54.8193194,8.49721614 L54.8193194,6.07045167 L51.2460644,6.07045167 L51.7607307,4.36999687 L46.8199337,4.36999687 Z M16.2340474,11.653325 L20.2347205,11.653325 L20.2347205,7.76888333 L16.2340474,7.76888333 L16.2340474,11.653325 Z M5.41134912,11.653325 L9.41202227,11.653325 L9.41202227,7.76888333 L5.41134912,7.76888333 L5.41134912,11.653325 Z M30.1153342,9.95388176 L30.1153342,17.2372099 L34.4748034,17.2372099 L27.9988301,23.0638724 L33.644475,23.0638724 L41.1733085,16.2660995 L41.1733085,14.8094338 L34.1150271,14.8094338 L34.1150271,12.3816578 L49.8785224,12.3816578 L49.8785224,14.8094338 L43.0555169,14.8094338 L43.0555169,23.0638724 L54.8193194,23.0638724 L56.4662517,18.6938755 L52.2312828,18.6938755 L51.4989861,20.6360963 L47.0552098,20.6360963 L47.0552098,17.2372099 L53.8782152,17.2372099 L53.8782152,9.95388176 L30.1153342,9.95388176 Z M0,23.0638724 L25.6450893,23.0638724 L25.6450893,13.1099906 L0,13.1099906 L0,23.0638724 Z M14.8223911,16.9934207 L21.6463768,16.9934207 L21.6463768,15.2939775 L14.8223911,15.2939775 L14.8223911,16.9934207 Z M4.00067315,15.2939775 L10.8226982,15.2939775 L10.8226982,16.9944323 L6.58674905,16.9944323 L5.64662517,19.1794307 L10.8226982,19.1794307 L10.8226982,20.8788739 L4.00067315,20.8788739 L4.00067315,15.2939775 Z M14.8223911,20.8788739 L21.6463768,20.8788739 L21.6463768,19.1794307 L14.8223911,19.1794307 L14.8223911,20.8788739 Z" id="path-27"></path>
        <path d="M0,13.1102941 L25.644109,13.1102941 L25.644109,13.3975809 L0.277429674,13.3975809 L0.277429674,23.0641759 L0,23.0641759 L0,13.1102941 Z M14.8223911,4.4145061 L14.8223911,4.12721927 L25.644109,4.12721927 L25.644109,4.4145061 L14.8223911,4.4145061 Z M5.64652714,19.1795319 L6.58763134,16.9945334 L6.86212006,16.9945334 L5.93866157,19.1795319 L5.64652714,19.1795319 Z M34.467353,17.2435828 L34.9388854,17.2435828 L28.468794,23.0641759 L27.9982419,23.0641759 L34.467353,17.2435828 Z M0,0.485555208 L25.644109,0.485555208 L25.644109,0.772842039 L0.277429674,0.772842039 L0.277429674,2.67055364 L0,2.67055364 L0,0.485555208 Z M78.3469243,1.94222083 L84.6993776,1.94222083 L84.5886018,2.22950766 L78.3469243,2.22950766 L78.3469243,1.94222083 Z M10.8226982,11.653325 L10.8226982,6.3122177 L11.1001279,6.3122177 L11.1001279,11.653325 L10.8226982,11.653325 Z M58.8190122,4.36999687 L58.8190122,1.94222083 L59.0964419,1.94222083 L59.0964419,4.36999687 L58.8190122,4.36999687 Z M44.4671732,1.4569691 L54.3487673,1.4569691 L54.2379915,1.74324435 L44.4671732,1.74324435 L44.4671732,1.4569691 Z M10.8229923,2.67055364 L11.100422,2.67055364 L11.100422,4.4145061 L0.277723769,4.4145061 L0.277723769,11.653325 L0.000294095061,11.653325 L0.000294095061,4.12721927 L10.8229923,4.12721927 L10.8229923,2.67055364 Z M43.0555169,23.0638724 L43.0555169,14.8094338 L43.3339269,14.8094338 L43.3339269,23.0638724 L43.0555169,23.0638724 Z M60.9359085,15.4773757 L61.2143184,15.2457254 L61.2143184,20.6353882 L60.9359085,20.6353882 L60.9359085,15.4773757 Z M61.2144165,4.36999687 L61.2144165,11.8465355 L61.2144165,12.2086788 L59.1106565,13.9566775 L59.1106565,16.9944323 L58.8195024,17.2372099 L58.8195024,14.1994551 L58.8195024,13.8383234 L60.9360065,12.0781858 L60.9360065,4.36999687 L61.2144165,4.36999687 Z M30.1151382,17.2369064 L30.1151382,9.95357829 L53.8780191,9.95357829 L53.8780191,10.2398536 L30.3935482,10.2398536 L30.3935482,17.2369064 L30.1151382,17.2369064 Z M80.9777026,9.22534664 L80.9777026,10.2996375 L80.9786829,10.2976144 L80.9777026,10.6567229 L76.3574692,14.3550351 L76.1329766,14.1769982 L80.6992926,10.5211721 L80.6992926,9.22534664 L80.9777026,9.22534664 Z M58.8190122,23.0638724 L58.8190122,20.6360963 L59.0964419,20.6360963 L59.0964419,23.0638724 L58.8190122,23.0638724 Z M51.2457703,6.06913663 L54.8190253,6.06913663 L54.8190253,6.35541189 L51.1261716,6.35541189 L51.2457703,6.06913663 Z M39.5263762,0.000303472005 L44.4671732,0.000303472005 L44.4671732,0.28657873 L39.8038059,0.28657873 L39.8038059,1.74324435 L39.6930301,1.74324435 L39.5263762,1.74324435 L29.9222118,1.74324435 L29.9222118,3.88373356 L29.6447822,3.88373356 L29.6447822,1.74324435 L29.6447822,1.4569691 L29.9222118,1.4569691 L39.5263762,1.4569691 L39.5263762,0.28657873 L39.5263762,0.000303472005 Z M29.4522479,6.35611999 L29.4522479,8.49762077 L29.1738379,8.49762077 L29.1738379,6.35611999 L29.1738379,6.06883316 L29.4522479,6.06883316 L32.5039743,6.06883316 L31.9981308,4.3704015 L32.2755605,4.3704015 L32.8666916,6.35611999 L32.6892542,6.35611999 L32.5892619,6.35611999 L29.4522479,6.35611999 Z M47.0979516,6.35854776 L46.8195416,6.35854776 L46.8195416,6.35652462 L36.9389279,6.35652462 L36.9389279,6.06923779 L46.8195416,6.06923779 L46.8195416,4.36979456 L47.0979516,4.36979456 L47.0979516,6.06923779 L47.0979516,6.35652462 L47.0979516,6.35854776 Z M60.9359085,0.000303472005 L65.1718577,0.000303472005 L65.1718577,0.28657873 L61.2143184,0.28657873 L61.2143184,1.92633913 L60.9359085,1.92633913 L60.9359085,0.28657873 L60.9359085,0.000303472005 Z M67.7596981,6.79767175 L68.0371278,6.79767175 L74.1121514,6.79767175 L74.1121514,7.08495859 L68.0371278,7.08495859 L68.0371278,9.22544779 L67.7596981,9.22544779 L67.7596981,7.08495859 L67.7596981,6.79767175 Z M78.3469243,7.08404817 L78.3469243,6.79777291 L84.6993776,6.79777291 L84.6993776,7.08404817 L78.3469243,7.08404817 Z M74.1119554,0.000303472005 L78.3469243,0.000303472005 L78.3469243,0.28657873 L74.3893851,0.28657873 L74.3893851,2.22879956 L68.0281089,2.22879956 L68.0369317,4.37030034 L67.7595021,4.37030034 L67.7595021,2.22879956 L67.7595021,1.9425243 L68.0271286,1.9425243 L74.1119554,1.9425243 L74.1119554,0.28657873 L74.1119554,0.000303472005 Z M68.0630082,20.6357929 L73.0802699,16.6198467 L73.3047625,16.7978836 L68.1512367,20.9220681 L66.1553115,20.9220681 L66.1553115,23.0635689 L65.8769015,23.0635689 L65.8769015,20.9220681 L65.8769015,20.6357929 L66.1553115,20.6357929 L68.0630082,20.6357929 Z" id="path-29"></path>
    </defs>
    <g id="雷竞技2.0（调整v01）" stroke="none" stroke-width="1" fill="none" fill-rule="evenodd">
        <g id="icon切图" transform="translate(-188.000000, -197.000000)">
            <g id="logo-中英文" transform="translate(188.000000, 197.000000)">
                <g id="Group" transform="translate(43.042446, 8.143165)">
                    <path d="M16.2630647,36.2256291 L0,8.86107678 L27.9194245,8.86107678 L32.5261295,8.86107678 L16.2630647,36.2256291 Z M18.5664173,40.1012953 L37.1328345,8.86107678 L55.8388489,8.86107678 L27.9194245,55.8388489 L18.5664173,40.1012953 Z" id="Combined-Shape" fill="#000000" style="mix-blend-mode: multiply;"></path>
                    <polygon id="Path" fill="url(#radialGradient-1)" points="16.2630647 36.2256291 0 8.86107678 32.5261295 8.86107678"></polygon>
                    <polygon id="Path" fill-opacity="0.3" fill="url(#linearGradient-2)" points="16.2630647 36.2256291 27.9194245 8.86107678 32.5261295 8.86107678"></polygon>
                    <polygon id="Path" fill="url(#linearGradient-3)" points="18.5664173 40.1012953 37.1328345 8.86107678 55.8388489 8.86107678 27.9194245 55.8388489"></polygon>
                    <polygon id="Path" fill-opacity="0.3" fill="url(#linearGradient-4)" points="18.5664173 40.1012953 37.1328345 8.86107678 41.8775008 8.86107678"></polygon>
                    <polygon id="Combined-Shape" fill="url(#radialGradient-5)" points="16.2630647 36.2256291 0 8.86107678 10.1829557 8.86107678"></polygon>
                    <g id="Combined-Shape">
                        <use fill="url(#linearGradient-6)" xlink:href="#path-8"></use>
                        <use fill-opacity="0.8" fill="url(#radialGradient-7)" xlink:href="#path-8"></use>
                    </g>
                    <polygon id="Path" fill="url(#radialGradient-10)" points="19.1425387 41.07101 55.8388489 8.86107678 27.9194245 55.8388489"></polygon>
                    <g id="Path">
                        <use fill="url(#linearGradient-11)" xlink:href="#path-13"></use>
                        <use fill-opacity="0.5" fill="url(#radialGradient-12)" xlink:href="#path-13"></use>
                    </g>
                    <path d="M13.2617266,50.0721164 C13.1669805,50.0721164 13.1204482,50.0252324 13.1221295,49.9314644 L18.5664173,40.0858235 L41.3207482,1.82847616 L41.4603453,1.82847616 L19.1248058,41.0703876 L13.4013237,49.9314644 C13.3379779,50.0252324 13.2914455,50.0721164 13.2617266,50.0721164 Z" id="Combined-Shape" fill="url(#linearGradient-14)"></path>
                    <g id="Combined-Shape">
                        <use fill="url(#linearGradient-15)" xlink:href="#path-17"></use>
                        <use fill="url(#radialGradient-16)" xlink:href="#path-17"></use>
                    </g>
                    <path d="M12.4241439,42.4769077 L31.5489496,8.86107678 L36.8536403,0.421956037 C37.0173215,0.140652012 37.1569187,0 37.2724317,0 C37.3898986,0 37.436431,0.0937680083 37.4120288,0.281304025 L32.5261295,8.86107678 L12.563741,42.4769077 L12.4241439,42.4769077 Z" id="Combined-Shape" fill="url(#linearGradient-18)"></path>
                    <g id="Combined-Shape">
                        <use fill="url(#linearGradient-19)" xlink:href="#path-21"></use>
                        <use fill="url(#radialGradient-20)" xlink:href="#path-21"></use>
                    </g>
                </g>
                <g id="Page-1" transform="translate(4.653237, 77.941727)">
                    <g id="Fill-1">
                        <use fill="url(#radialGradient-22)" xlink:href="#path-24"></use>
                        <use fill="url(#radialGradient-23)" xlink:href="#path-24"></use>
                    </g>
                    <path d="M112.101203,0.000305498926 L131.263802,0.000305498926 L130.305672,3.90967342 L124.077827,3.90967342 L124.077827,19.5522368 L119.287177,19.5522368 L119.287177,3.90967342 L112.101203,3.90967342 L112.101203,0.000305498926 Z M90.5432792,0.000305498926 L107.789618,0.000305498926 L106.831488,3.90967342 L95.3339289,3.90967342 L95.3339289,7.82107801 L104.915228,7.82107801 L104.915228,11.7304459 L95.3339289,11.7304459 L95.3339289,15.6418505 L108.74675,15.6418505 L107.789618,19.5522368 L90.5432792,19.5522368 L90.5432792,0.000305498926 Z M67.5481607,0.000305498926 L84.3144366,0.000305498926 L84.3144366,7.82107801 L86.7117575,7.82107801 L86.7117575,19.5522368 L67.5481607,19.5522368 L67.5481607,15.6418505 L81.9201098,15.6418505 L81.9201098,11.7304459 L74.7341353,11.7304459 L75.6922652,7.82107801 L79.5247849,7.82107801 L79.5247849,3.90967342 L72.3388104,3.90967342 L72.3388104,13.6876757 L67.5481607,13.6876757 L67.5481607,0.000305498926 Z" id="Combined-Shape" fill="#A9CAE8"></path>
                    <path d="M43.5512463,0 L51.8426943,11.6467568 L51.8426943,19.5519313 L51.4994842,19.5519313 L51.4994842,11.7301404 L43.1158473,0 L43.5512463,0 Z M26.8276383,0 L39.7623925,0 L39.8332041,0.329604317 L27.1305387,0.329604317 L22.8932119,19.5519313 L22.5160536,19.5519313 L26.8276383,0 Z M31.7415561,11.7301404 L30.7797957,15.6425634 L30.4196275,15.6425634 L31.3797536,11.7301404 L31.7415561,11.7301404 Z M7.50817698,8.79735075 L7.50817698,10.6430167 L15.2532178,19.5519313 L14.8520121,19.5519313 L7.18597454,10.7535622 L7.18597454,8.79735075 L7.50817698,8.79735075 Z M0,0 L19.1625988,0 L19.1625988,0.329604317 L0.320619407,0.329604317 L0.320619407,19.5519313 L0,19.5519313 L0,0 Z" id="Combined-Shape" fill="#FFFFFF" style="mix-blend-mode: overlay;"></path>
                    <path d="M112.101203,0.000305498926 L131.263802,0.000305498926 L131.179286,0.329604317 L112.428999,0.329604317 L112.428999,3.90967342 L112.101203,3.90967342 L112.101203,0.000305498926 Z M119.287177,3.90967342 L119.598476,3.90967342 L119.598476,19.5522368 L119.287177,19.5522368 L119.287177,3.90967342 Z M90.5432792,0.000305498926 L107.789618,0.000305498926 L107.698767,0.342399015 L90.9073824,0.342399015 L90.9133314,19.5522368 L90.5432792,19.5522368 L90.5432792,0.000305498926 Z M76.0245481,7.82107801 L75.0615158,11.7304459 L74.7341353,11.7304459 L75.6922652,7.82107801 L76.0245481,7.82107801 Z M67.8696335,15.6447783 L67.8696335,19.5502595 L67.5423606,19.5502595 L67.5481607,15.6447783 L67.8696335,15.6447783 Z M67.5481607,0.000305498926 L84.3144366,0.000305498926 L84.3340761,0.284025943 L67.8501387,0.284025943 L67.8501387,13.6876757 L67.5481607,13.6876757 L67.5481607,0.000305498926 Z" id="Combined-Shape" fill-opacity="0.8" fill="#FFFFFF" style="mix-blend-mode: overlay;"></path>
                </g>
                <g id="Page-1" transform="translate(26.756115, 104.697842)">
                    <mask id="mask-28" fill="white">
                        <use xlink:href="#path-27"></use>
                    </mask>
                    <g id="Clip-2">
                        <use fill="url(#radialGradient-25)" xlink:href="#path-27"></use>
                        <use fill="url(#radialGradient-26)" xlink:href="#path-27"></use>
                    </g>
                    <g id="Combined-Shape" fill="#FFFFFF">
                        <use style="mix-blend-mode: overlay;" xlink:href="#path-29"></use>
                        <use style="mix-blend-mode: overlay;" xlink:href="#path-29"></use>
                    </g>
                </g>
            </g>
        </g>
    </g>
</svg>