<?xml version="1.0" encoding="UTF-8"?>
<svg width="146px" height="29px" viewBox="0 0 146 29" version="1.1" xmlns="http://www.w3.org/2000/svg" xmlns:xlink="http://www.w3.org/1999/xlink">
    <!-- Generator: Sketch 49.3 (51167) - http://www.bohemiancoding.com/sketch -->
    <title>MGA LOGO</title>
    <desc>Created with Sketch.</desc>
    <defs></defs>
    <g id="雷竞技2.0-copy" stroke="none" stroke-width="1" fill="none" fill-rule="evenodd">
        <g id="icon切图" transform="translate(-133.000000, -436.000000)">
            <g id="MGA-LOGO" transform="translate(133.000000, 436.000000)">
                <path d="M20.2888869,3.7504 L17.4923026,1.67801905 C17.2698607,1.54075429 17.0421453,1.60146286 16.9779056,1.73141333 C16.8961678,1.89720381 17.0129019,2.1656381 17.0129019,2.1656381 L21.3601079,13.8684952 L21.3601079,5.74671238 C21.3601079,4.49718857 20.2888869,3.7504 20.2888869,3.7504" id="Fill-1" fill="#D90C16"></path>
                <path d="M16.9780255,26.0056503 C17.0422652,26.1356008 17.2697408,26.1960655 17.4924225,26.0590446 L20.2890067,23.9866636 C20.2890067,23.9866636 21.359988,23.239875 21.359988,21.9903512 L21.359988,13.8685684 L17.0130217,25.5714255 C17.0130217,25.5714255 16.8962876,25.839616 16.9780255,26.0056503" id="Fill-3" fill="#D90C16"></path>
                <path d="M8.89211685,9.66409752 C8.70323296,9.85573181 8.86311311,10.1097813 8.86311311,10.1097813 C8.86311311,10.1097813 10.3413453,11.9993051 11.0204165,12.8728747 C11.6994876,13.746688 12.7182142,13.8685928 12.7182142,13.8685928 C12.7182142,13.8685928 11.6994876,13.9904975 11.0204165,14.864067 C10.3413453,15.7378804 8.86311311,17.6274042 8.86311311,17.6274042 C8.86311311,17.6274042 8.70323296,17.8812099 8.89211685,18.0728442 C8.97601199,18.1579337 9.12486592,18.2084023 9.4319221,18.1094156 L21.3601318,13.8685928 L9.4319221,9.6277699 C9.12486592,9.52853943 8.97601199,9.579008 8.89211685,9.66409752" id="Fill-5" fill="#D90C16"></path>
                <path d="M23.9643326,7.2856381 L23.9643326,20.4513524 L28.0792689,20.4513524 L28.0792689,11.4711162 C28.0792689,11.4711162 29.397621,10.4551619 30.5560929,10.4551619 C31.7145648,10.4551619 32.3538457,11.2273067 32.3538457,12.0399238 L32.3538457,20.4513524 L36.468782,20.4513524 L36.468782,11.7207771 C36.468782,11.7207771 36.9481828,10.4551619 38.8657858,10.4551619 C40.7833888,10.4551619 40.5436884,12.2430171 40.5436884,12.2430171 L40.5436884,20.4513524 L44.8182654,20.4513524 L44.8182652,11.3084952 C44.8182652,11.3084952 44.8283326,7.04182857 40.3938757,7.04182857 C38.3962127,7.04182857 35.5497708,8.70777905 35.5497708,8.70777905 C35.5497708,8.70777905 34.5212165,7.04182857 32.1242127,7.04182857 C29.727209,7.04182857 27.7995386,8.5454019 27.7995386,8.5454019 L27.5598382,7.2856381 L23.9643326,7.2856381 Z" id="Fill-8" fill="#758BB5"></path>
                <path d="M67.8094861,17.038019 C67.8094861,17.038019 67.3001228,17.5256381 65.9817708,17.5256381 C64.6634187,17.5256381 64.2139805,17.038019 64.2139805,16.062781 C64.2139805,15.6314819 64.6938607,15.1865295 65.1624749,14.9461333 C65.753576,14.6425905 66.4721978,14.5999238 67.8094861,14.5999238 L67.8094861,17.038019 Z M71.9143551,15.3923048 L71.9143551,11.7656381 C71.9143551,11.7656381 72.6034936,6.98087619 66.3113588,6.98087619 C63.255179,6.98087619 60.8881378,8.2304 60.8881378,8.2304 L62.266415,10.942781 C62.266415,10.942781 64.0941303,9.93706667 65.50237,9.93706667 C66.9106097,9.93706667 67.8993738,10.6989714 67.8094861,12.0248076 L66.2813963,12.0248076 C66.2813963,12.0248076 60.1989993,11.6742095 60.1989993,16.4284952 C60.1989993,21.4875429 66.0716584,21.3961143 68.1091116,19.4761143 L68.8282127,20.4208762 L72.0941303,20.4208762 C72.0941303,20.4208762 71.9143551,19.2932571 71.9143551,15.3923048 Z" id="Fill-10" fill="#758BB5"></path>
                <polygon id="Fill-12" fill="#526585" points="81.1931566 7.11753143 82.2502352 7.11753143 82.6613213 12.8007314 81.5119581 12.8007314 81.3189993 9.26793143 80.0857408 11.8449981 78.8776509 11.8449981 77.6443925 9.26793143 77.4514337 12.8007314 76.3020704 12.8007314 76.7131566 7.11753143 77.7702352 7.11753143 79.4816959 10.7868648"></polygon>
                <path d="M85.9834007,8.07326476 L85.1444494,10.6588648 L86.8223521,10.6588648 L85.9834007,8.07326476 Z M88.7437903,12.8007314 L87.5270712,12.8007314 L87.132764,11.6060648 L84.8340375,11.6060648 L84.43997,12.8007314 L83.2232509,12.8007314 L85.3457978,7.11753143 L86.6210037,7.11753143 L88.7437903,12.8007314 Z" id="Fill-14" fill="#526585"></path>
                <polygon id="Fill-16" fill="#526585" points="90.664821 7.11753143 90.664821 11.8535314 92.7456599 11.8535314 92.7456599 12.8007314 89.4905288 12.8007314 89.4905288 7.11753143"></polygon>
                <polygon id="Fill-18" fill="#526585" points="96.814406 7.11753143 96.814406 8.06473143 95.2707356 8.06473143 95.2707356 12.8007314 94.0962037 12.8007314 94.0962037 8.06473143 92.5525333 8.06473143 92.5525333 7.11753143"></polygon>
                <path d="M99.3897708,8.07326476 L98.5508195,10.6588648 L100.228722,10.6588648 L99.3897708,8.07326476 Z M102.15016,12.8007314 L100.933441,12.8007314 L100.539134,11.6060648 L98.2404075,11.6060648 L97.8463401,12.8007314 L96.629621,12.8007314 L98.7521678,7.11753143 L100.027374,7.11753143 L102.15016,12.8007314 Z" id="Fill-20" fill="#526585"></path>
                <path d="M107.468896,7.01515581 C107.804476,7.01515581 108.117525,7.040512 108.408521,7.09122438 C108.699278,7.14218057 108.981885,7.2323901 109.255862,7.36185295 L109.088072,8.28662248 C108.8419,8.18422248 108.595727,8.10449676 108.349795,8.04768914 C108.103622,7.99088152 107.840911,7.96235581 107.561181,7.96235581 C107.259158,7.96235581 106.987817,8.00526629 106.747398,8.09059962 C106.506739,8.17617676 106.301315,8.30442057 106.130888,8.47533105 C105.959982,8.64648533 105.828626,8.863232 105.736342,9.12532724 C105.644297,9.38766629 105.598034,9.692672 105.598034,10.0403444 C105.598034,10.6844891 105.760072,11.1718644 106.084626,11.5027139 C106.408941,11.8333196 106.895533,11.9986225 107.544401,11.9986225 C107.678634,11.9986225 107.814064,11.9886263 107.951413,11.9686339 C108.088282,11.9488853 108.212686,11.9218225 108.324626,11.8876891 L108.324626,10.2066225 L109.381705,10.2066225 L109.381705,12.5276891 C109.118754,12.6415482 108.80978,12.7324891 108.454544,12.8007558 C108.099548,12.8690225 107.74575,12.9031558 107.39339,12.9031558 C106.929091,12.9031558 106.51393,12.8334263 106.147428,12.6939672 C105.781166,12.554752 105.469315,12.3584853 105.212117,12.1051672 C104.954918,11.852093 104.759083,11.5507444 104.624851,11.2006339 C104.490619,10.8507672 104.423503,10.4626225 104.423503,10.0359558 C104.423503,9.58661486 104.491817,9.175552 104.628926,8.80301105 C104.766034,8.4304701 104.965945,8.11181105 105.228896,7.84727771 C105.491847,7.58274438 105.810409,7.37770057 106.1853,7.23287771 C106.559952,7.08756724 106.987817,7.01515581 107.468896,7.01515581" id="Fill-22" fill="#526585"></path>
                <path d="M112.804578,8.07326476 L111.965627,10.6588648 L113.64353,10.6588648 L112.804578,8.07326476 Z M115.564968,12.8007314 L114.348249,12.8007314 L113.953942,11.6060648 L111.655215,11.6060648 L111.261148,12.8007314 L110.044428,12.8007314 L112.166975,7.11753143 L113.442181,7.11753143 L115.564968,12.8007314 Z" id="Fill-24" fill="#526585"></path>
                <polygon id="Fill-26" fill="#526585" points="121.017816 7.11753143 122.074894 7.11753143 122.485981 12.8007314 121.336617 12.8007314 121.143658 9.26793143 119.9104 11.8449981 118.70231 11.8449981 117.469052 9.26793143 117.276093 12.8007314 116.12673 12.8007314 116.537816 7.11753143 117.594894 7.11753143 119.306355 10.7868648"></polygon>
                <polygon id="Fill-28" fill="#526585" points="123.517963 12.8008533 124.692494 12.8008533 124.692494 7.11765333 123.517963 7.11765333"></polygon>
                <polygon id="Fill-30" fill="#526585" points="129.642115 12.8007558 127.032737 9.08022248 127.032737 12.8007558 125.908782 12.8007558 125.908782 7.11755581 127.032737 7.11755581 129.642115 10.8380891 129.642115 7.11755581 130.76607 7.11755581 130.76607 12.8007558"></polygon>
                <path d="M134.709285,7.01515581 C135.044866,7.01515581 135.357915,7.040512 135.648911,7.09122438 C135.939667,7.14218057 136.222274,7.2323901 136.496252,7.36185295 L136.328461,8.28662248 C136.082289,8.18422248 135.836117,8.10449676 135.590184,8.04768914 C135.344012,7.99088152 135.0813,7.96235581 134.80157,7.96235581 C134.499548,7.96235581 134.228207,8.00526629 133.987787,8.09059962 C133.747128,8.17617676 133.541705,8.30442057 133.371278,8.47533105 C133.200372,8.64648533 133.069016,8.863232 132.976731,9.12532724 C132.884686,9.38766629 132.838424,9.692672 132.838424,10.0403444 C132.838424,10.6844891 133.000461,11.1718644 133.325016,11.5027139 C133.64933,11.8333196 134.135922,11.9986225 134.784791,11.9986225 C134.919023,11.9986225 135.054454,11.9886263 135.191802,11.9686339 C135.328671,11.9488853 135.453076,11.9218225 135.565016,11.8876891 L135.565016,10.2066225 L136.622094,10.2066225 L136.622094,12.5276891 C136.359143,12.6415482 136.050169,12.7324891 135.694933,12.8007558 C135.339937,12.8690225 134.986139,12.9031558 134.63378,12.9031558 C134.16948,12.9031558 133.754319,12.8334263 133.387817,12.6939672 C133.021555,12.554752 132.709705,12.3584853 132.452506,12.1051672 C132.195308,11.852093 131.999473,11.5507444 131.86524,11.2006339 C131.731008,10.8507672 131.663892,10.4626225 131.663892,10.0359558 C131.663892,9.58661486 131.732207,9.175552 131.869315,8.80301105 C132.006424,8.4304701 132.206334,8.11181105 132.469285,7.84727771 C132.732237,7.58274438 133.050799,7.37770057 133.42569,7.23287771 C133.800342,7.08756724 134.228207,7.01515581 134.709285,7.01515581" id="Fill-31" fill="#526585"></path>
                <path d="M78.8188524,15.63136 L77.9799011,18.2167162 L79.6578037,18.2167162 L78.8188524,15.63136 Z M81.5792419,20.3588267 L80.3625228,20.3588267 L79.9682157,19.1639162 L77.6694891,19.1639162 L77.2754217,20.3588267 L76.0587026,20.3588267 L78.1812494,14.6756267 L79.4564554,14.6756267 L81.5792419,20.3588267 Z" id="Fill-32" fill="#526585"></path>
                <path d="M85.5391161,14.6756267 L86.7134082,14.6756267 L86.7134082,18.3105829 C86.7134082,18.6348495 86.6604345,18.9293714 86.5540075,19.1939048 C86.4478202,19.4584381 86.296809,19.6846933 86.1012135,19.8721829 C85.9051386,20.06016 85.6635206,20.2052267 85.3754007,20.3076267 C85.0872809,20.4100267 84.7644045,20.4609829 84.4062921,20.4609829 C84.0429064,20.4609829 83.7183521,20.4100267 83.4333483,20.3076267 C83.1478652,20.2052267 82.9074457,20.06016 82.7116105,19.8721829 C82.516015,19.6846933 82.3650037,19.4584381 82.2585768,19.1939048 C82.1523895,18.9293714 82.099176,18.6348495 82.099176,18.3105829 L82.099176,14.6756267 L83.2739476,14.6756267 L83.2739476,18.3683657 C83.2739476,18.7274971 83.3688689,19.0083657 83.5589513,19.2104838 C83.7490337,19.4128457 84.0316404,19.5140267 84.4062921,19.5140267 C84.7811835,19.5140267 85.0635506,19.4128457 85.2538727,19.2104838 C85.4439551,19.0083657 85.5391161,18.7274971 85.5391161,18.3683657 L85.5391161,14.6756267 Z" id="Fill-33" fill="#526585"></path>
                <polygon id="Fill-34" fill="#526585" points="91.7053124 14.6756267 91.7053124 15.6228267 90.1616419 15.6228267 90.1616419 20.3588267 88.9871101 20.3588267 88.9871101 15.6228267 87.4434397 15.6228267 87.4434397 14.6756267"></polygon>
                <polygon id="Fill-35" fill="#526585" points="95.9417528 20.3587291 95.9417528 17.9693958 93.6262472 17.9693958 93.6262472 20.3587291 92.4517154 20.3587291 92.4517154 14.6755291 93.6262472 14.6755291 93.6262472 16.9795291 95.9417528 16.9795291 95.9417528 14.6755291 97.1162846 14.6755291 97.1162846 20.3587291"></polygon>
                <path d="M100.832887,19.5225356 C101.107104,19.5225356 101.346085,19.4713356 101.55031,19.3689356 C101.754535,19.2662918 101.924962,19.1256137 102.06207,18.9464137 C102.198939,18.7672137 102.301052,18.5553432 102.368168,18.3105585 C102.435524,18.0660175 102.468842,17.8014842 102.468842,17.5169585 C102.468842,17.2326766 102.435524,16.9681432 102.368168,16.7236023 C102.301052,16.4790613 102.198939,16.266947 102.06207,16.087747 C101.924962,15.908547 101.754535,15.767869 101.55031,15.665469 C101.346085,15.563069 101.107104,15.511869 100.832887,15.511869 C100.55867,15.511869 100.319688,15.563069 100.115703,15.665469 C99.9114787,15.767869 99.740812,15.908547 99.6039431,16.087747 C99.4668345,16.266947 99.3647221,16.4790613 99.2978457,16.7236023 C99.2304899,16.9681432 99.1971715,17.2326766 99.1971715,17.5169585 C99.1971715,17.8014842 99.2304899,18.0660175 99.2978457,18.3105585 C99.3647221,18.5553432 99.4668345,18.7672137 99.6039431,18.9464137 C99.740812,19.1256137 99.9114787,19.2662918 100.115703,19.3689356 C100.319688,19.4713356 100.55867,19.5225356 100.832887,19.5225356 M103.643613,17.5169585 C103.643613,17.9211947 103.580572,18.3008061 103.45473,18.6562804 C103.328887,19.0117547 103.146954,19.323587 102.909411,19.5905585 C102.671628,19.8582613 102.377756,20.0701318 102.028512,20.2264137 C101.67879,20.3826956 101.280407,20.4612023 100.832887,20.4612023 C100.385366,20.4612023 99.9869843,20.3826956 99.6375011,20.2264137 C99.288018,20.0701318 98.9927071,19.8582613 98.7522876,19.5905585 C98.5116285,19.323587 98.3301753,19.0117547 98.2069693,18.6562804 C98.084003,18.3008061 98.0224,17.9211947 98.0224,17.5169585 C98.0224,17.1190613 98.084003,16.740669 98.2069693,16.382269 C98.3301753,16.0236251 98.5116285,15.7110613 98.7522876,15.4436023 C98.9927071,15.1761432 99.288018,14.9645166 99.6375011,14.807747 C99.9869843,14.6514651 100.385366,14.5729585 100.832887,14.5729585 C101.280407,14.5729585 101.67879,14.6514651 102.028512,14.807747 C102.377756,14.9645166 102.671628,15.1761432 102.909411,15.4436023 C103.146954,15.7110613 103.328887,16.0236251 103.45473,16.382269 C103.580572,16.740669 103.643613,17.1190613 103.643613,17.5169585" id="Fill-36" fill="#526585"></path>
                <path d="M107.418559,16.4334933 C107.418559,16.14336 107.306619,15.9327086 107.082978,15.8017829 C106.859338,15.671101 106.568342,15.6055162 106.210469,15.6055162 L105.723877,15.6055162 L105.723877,17.3806933 L106.076237,17.3806933 C106.478933,17.3806933 106.803248,17.3012114 107.04942,17.1415162 C107.295353,16.9825524 107.418559,16.746301 107.418559,16.4334933 M108.593091,16.4078933 C108.593091,16.8118857 108.481151,17.1515124 108.25751,17.4275048 C108.03363,17.7034971 107.712192,17.9153676 107.292716,18.06336 L109.180357,20.3588267 L107.720581,20.3588267 L106.101405,18.2852267 L105.723877,18.2852267 L105.723877,20.3588267 L104.549345,20.3588267 L104.549345,14.6756267 L106.218858,14.6756267 C106.565465,14.6756267 106.884267,14.7112229 107.175263,14.7824152 C107.466019,14.8536076 107.716267,14.9613714 107.926004,15.1064381 C108.135742,15.2515048 108.299458,15.4324114 108.416911,15.6481829 C108.534364,15.8646857 108.593091,16.11776 108.593091,16.4078933" id="Fill-37" fill="#526585"></path>
                <polygon id="Fill-38" fill="#526585" points="109.809498 20.3587048 110.98403 20.3587048 110.98403 14.6755048 109.809498 14.6755048"></polygon>
                <polygon id="Fill-39" fill="#526585" points="116.034445 14.6756267 116.034445 15.6228267 114.490775 15.6228267 114.490775 20.3588267 113.316243 20.3588267 113.316243 15.6228267 111.772572 15.6228267 111.772572 14.6756267"></polygon>
                <polygon id="Fill-40" fill="#526585" points="119.943862 14.6756267 121.227218 14.6756267 119.381525 18.2340267 119.381525 20.3588267 118.207233 20.3588267 118.207233 18.2340267 116.36154 14.6756267 117.645136 14.6756267 118.794499 17.1758933"></polygon>
                <path d="M52.5885124,24.3218286 C50.9106097,24.3218286 49.4124824,23.4684952 49.4124824,22.4323048 C49.4124824,21.3961143 50.1915086,21.182781 50.1915086,21.182781 C50.1915086,21.182781 51.194415,21.6704 52.5137258,21.6704 C54.5063551,21.6704 55.6147296,22.3104 55.6147296,23.102781 C55.6147296,23.8951619 54.266415,24.3218286 52.5885124,24.3218286 M52.3787745,9.93706667 C53.3675386,9.93706667 54.4162277,10.7599238 54.4162277,12.1008762 C54.4162277,13.4418286 53.337576,14.1123048 52.5137258,14.1123048 C51.689636,14.1123048 50.5510592,13.5637333 50.5510592,12.0245638 C50.5510592,10.4856381 51.5697858,9.93706667 52.3787745,9.93706667 M54.6858906,18.9884952 C52.5285873,18.7039695 50.5709543,18.6634971 50.8106547,17.038019 C50.8106547,17.038019 51.5297558,17.2411124 52.4885573,17.2411124 C53.4473588,17.2411124 58.2413663,16.7534933 58.2413663,12.2837333 C58.2413663,9.92682667 57.2825648,9.15492571 57.2825648,9.15492571 C57.2825648,9.15492571 58.2413663,8.82968381 59.0004974,9.15492571 L59.7195985,6.26968381 C59.7195985,6.26968381 57.1627146,5.82278095 55.3251715,7.52944762 C55.3251715,7.52944762 54.36637,7.04182857 52.2888869,7.04182857 C50.2114037,7.04182857 46.7757783,7.8951619 46.7757783,11.9587352 C46.7757783,15.0468267 48.8930517,16.062781 48.8930517,16.062781 C48.8930517,16.062781 45.936827,17.8506362 47.9742801,20.1668267 C47.9742801,20.1668267 45.8169768,20.7763505 45.8169768,23.2144457 C45.8169768,25.652541 48.1739506,27.0342095 52.2090667,27.0342095 C56.2439431,27.0342095 59.4398682,25.4494476 59.4398682,22.6049219 C59.4398682,19.76064 56.843194,19.273021 54.6858906,18.9884952" id="Fill-41" fill="#758BB5"></path>
            </g>
        </g>
    </g>
</svg>