<?xml version="1.0" encoding="UTF-8"?>
<svg width="120px" height="120px" viewBox="0 0 120 120" version="1.1" xmlns="http://www.w3.org/2000/svg" xmlns:xlink="http://www.w3.org/1999/xlink">
    <!-- Generator: Sketch 49.3 (51167) - http://www.bohemiancoding.com/sketch -->
    <title>关于页面logo@1x</title>
    <desc>Created with Sketch.</desc>
    <defs>
        <radialGradient cx="32.5512454%" cy="0.359013728%" fx="32.5512454%" fy="0.359013728%" r="101.776585%" gradientTransform="translate(0.325512,0.003590),scale(0.841310,1.000000),rotate(78.241936),translate(-0.325512,-0.003590)" id="radialGradient-1">
            <stop stop-color="#007DA3" offset="0%"></stop>
            <stop stop-color="#004E72" offset="100%"></stop>
        </radialGradient>
        <linearGradient x1="90.0441012%" y1="3.76940009%" x2="0%" y2="100%" id="linearGradient-2">
            <stop stop-color="#008EB0" offset="0%"></stop>
            <stop stop-color="#005175" offset="100%"></stop>
        </linearGradient>
        <linearGradient x1="50%" y1="0%" x2="0%" y2="66.3220434%" id="linearGradient-3">
            <stop stop-color="#004E72" offset="0%"></stop>
            <stop stop-color="#007DA3" offset="100%"></stop>
        </linearGradient>
        <linearGradient x1="80.8065686%" y1="0%" x2="2.20955461%" y2="97.265625%" id="linearGradient-4">
            <stop stop-color="#00678C" offset="0%"></stop>
            <stop stop-color="#007DA3" offset="100%"></stop>
        </linearGradient>
        <radialGradient cx="100%" cy="100%" fx="100%" fy="100%" r="194.758012%" gradientTransform="translate(1.000000,1.000000),scale(1.000000,0.594311),rotate(-120.723498),translate(-1.000000,-1.000000)" id="radialGradient-5">
            <stop stop-color="#00A8E1" offset="0%"></stop>
            <stop stop-color="#1EFFFA" offset="100%"></stop>
        </radialGradient>
        <linearGradient x1="0%" y1="0%" x2="97.8432681%" y2="97.8432681%" id="linearGradient-6">
            <stop stop-color="#53FFFB" offset="0%"></stop>
            <stop stop-color="#02ADE2" offset="100%"></stop>
        </linearGradient>
        <radialGradient cx="0%" cy="0%" fx="0%" fy="0%" r="191.551093%" gradientTransform="translate(0.000000,0.000000),scale(1.000000,0.241040),rotate(74.868993),translate(-0.000000,-0.000000)" id="radialGradient-7">
            <stop stop-color="#FFFFFF" offset="0%"></stop>
            <stop stop-color="#FFFFFF" stop-opacity="0" offset="100%"></stop>
        </radialGradient>
        <polygon id="path-8" points="13.9397698 31.0505392 8.28608633 7.59520867 8.72824775 7.59520867"></polygon>
        <radialGradient cx="30.3681599%" cy="89.1417265%" fx="30.3681599%" fy="89.1417265%" r="2275.12533%" gradientTransform="translate(0.303682,0.891417),scale(0.012973,1.000000),translate(-0.303682,-0.891417)" id="radialGradient-9">
            <stop stop-color="#FFFFFF" offset="0%"></stop>
            <stop stop-color="#02D7D3" stop-opacity="0.202134284" offset="100%"></stop>
        </radialGradient>
        <radialGradient cx="99.6996929%" cy="0.205814873%" fx="99.6996929%" fy="0.205814873%" r="130.099698%" gradientTransform="translate(0.996997,0.002058),scale(1.000000,0.781142),rotate(138.737360),translate(-0.996997,-0.002058)" id="radialGradient-10">
            <stop stop-color="#00A8E1" offset="0%"></stop>
            <stop stop-color="#1EFFFA" offset="100%"></stop>
        </radialGradient>
        <linearGradient x1="0%" y1="100%" x2="100%" y2="0%" id="linearGradient-11">
            <stop stop-color="#12FFFB" offset="0%"></stop>
            <stop stop-color="#006D92" offset="100%"></stop>
        </linearGradient>
        <radialGradient cx="0%" cy="100%" fx="0%" fy="100%" r="71.7388238%" gradientTransform="translate(0.000000,1.000000),scale(0.889475,1.000000),rotate(38.410653),translate(-0.000000,-1.000000)" id="radialGradient-12">
            <stop stop-color="#FFFFFF" offset="0%"></stop>
            <stop stop-color="#FFFFFF" stop-opacity="0" offset="100%"></stop>
        </radialGradient>
        <polygon id="path-13" points="16.4078903 35.2037229 47.8618705 7.59520867 16.6284507 35.5727247"></polygon>
        <linearGradient x1="100%" y1="0%" x2="0%" y2="100%" id="linearGradient-14">
            <stop stop-color="#00D7D3" stop-opacity="0.402400362" offset="0%"></stop>
            <stop stop-color="#1EFFFA" offset="100%"></stop>
        </linearGradient>
        <linearGradient x1="100%" y1="0%" x2="0%" y2="100%" id="linearGradient-15">
            <stop stop-color="#02D7D3" offset="0%"></stop>
            <stop stop-color="#FFFFFF" offset="100%"></stop>
        </linearGradient>
        <radialGradient cx="20.7406089%" cy="79.1376023%" fx="20.7406089%" fy="79.1376023%" r="23.8968717%" gradientTransform="translate(0.207406,0.791376),scale(1.000000,0.584866),rotate(90.000000),translate(-0.207406,-0.791376)" id="radialGradient-16">
            <stop stop-color="#FFFFFF" stop-opacity="0.5" offset="0%"></stop>
            <stop stop-color="#FFFFFF" stop-opacity="0" offset="100%"></stop>
        </radialGradient>
        <polygon id="path-17" points="11.3671942 42.7983981 16.0337266 34.600395 35.0588201 2.29061849 16.273036 34.9620717"></polygon>
        <linearGradient x1="0%" y1="100%" x2="100%" y2="0%" id="linearGradient-18">
            <stop stop-color="#00D7D3" stop-opacity="0.402400362" offset="0%"></stop>
            <stop stop-color="#1EFFFA" offset="100%"></stop>
        </linearGradient>
        <linearGradient x1="0%" y1="100%" x2="100%" y2="0%" id="linearGradient-19">
            <stop stop-color="#02D7D3" offset="0%"></stop>
            <stop stop-color="#FFFFFF" offset="100%"></stop>
        </linearGradient>
        <radialGradient cx="77.4295509%" cy="21.2350683%" fx="77.4295509%" fy="21.2350683%" r="36.6207091%" gradientTransform="translate(0.774296,0.212351),scale(1.000000,0.586015),rotate(85.074615),translate(-0.774296,-0.212351)" id="radialGradient-20">
            <stop stop-color="#FFFFFF" stop-opacity="0.5" offset="0%"></stop>
            <stop stop-color="#FFFFFF" stop-opacity="0" offset="100%"></stop>
        </radialGradient>
        <polygon id="path-21" points="11.1278849 35.6854249 27.2812662 7.59520867 31.7084892 0.482235471 31.8281439 0.361676603 27.6402302 7.59520867"></polygon>
        <radialGradient cx="0%" cy="0%" fx="0%" fy="0%" r="287.573105%" gradientTransform="translate(0.000000,0.000000),scale(0.302316,1.000000),rotate(14.127703),translate(-0.000000,-0.000000)" id="radialGradient-22">
            <stop stop-color="#00F3EE" offset="0%"></stop>
            <stop stop-color="#009CBF" offset="100%"></stop>
        </radialGradient>
        <radialGradient cx="0%" cy="0%" fx="0%" fy="0%" r="285.151122%" gradientTransform="translate(0.000000,0.000000),scale(0.302316,1.000000),rotate(14.127703),translate(-0.000000,-0.000000)" id="radialGradient-23">
            <stop stop-color="#1EFFFA" offset="0%"></stop>
            <stop stop-color="#34CCFF" offset="100%"></stop>
        </radialGradient>
        <path d="M50.3018218,0 L46.1955506,5.65522155 L42.0892795,0 L36.9564405,0 L44.1424151,10.0544061 L44.1424151,16.7587982 L48.2486862,16.7587982 L48.2486862,10.0544061 L55.4346608,0 L50.3018218,0 Z M22.9951185,0 L19.2994745,16.7587982 L23.4057457,16.7587982 L26.3622609,3.35175965 L30.7149083,3.35175965 L32.193166,10.0544061 L26.8969316,10.0544061 L26.0739664,13.4079114 L32.9322948,13.4079114 L33.672279,16.7587982 L37.7776947,16.7587982 L34.0820507,0 L22.9951185,0 Z M0,0 L0,16.7587982 L4.10627117,16.7587982 L4.10627117,3.35175965 L12.3188135,3.35175965 L12.3188135,7.54058635 L6.15940675,7.54058635 L6.15940675,9.21733903 L12.7302961,16.7587982 L17.656966,16.7587982 L12.5463694,10.8932189 L16.4250847,10.8932189 L16.4250847,0 L0,0 Z" id="path-24"></path>
        <radialGradient cx="0%" cy="0%" fx="0%" fy="0%" r="325.023275%" gradientTransform="translate(0.000000,0.000000),scale(0.265661,1.000000),rotate(12.471845),translate(-0.000000,-0.000000)" id="radialGradient-25">
            <stop stop-color="#00F3EE" offset="0%"></stop>
            <stop stop-color="#009CBF" offset="100%"></stop>
        </radialGradient>
        <radialGradient cx="0%" cy="0%" fx="0%" fy="0%" r="322.285881%" gradientTransform="translate(0.000000,0.000000),scale(0.265661,1.000000),rotate(12.471845),translate(-0.000000,-0.000000)" id="radialGradient-26">
            <stop stop-color="#1EFFFA" offset="0%"></stop>
            <stop stop-color="#34CCFF" offset="100%"></stop>
        </radialGradient>
        <path d="M63.5245332,0 L63.5245332,1.66476071 L58.0795732,1.66476071 L58.0795732,3.7457116 L63.5245332,3.7457116 L63.5245332,5.8266625 L58.0795732,5.8266625 L58.0795732,7.90761339 L69.1711584,7.90761339 L69.1711584,9.0165868 L65.256333,12.150152 L63.322868,10.6128495 L58.0795732,10.6128495 L62.6397272,14.245843 L58.3400574,17.6880826 L56.4654114,17.6880826 L56.4654114,19.7690335 L60.9028858,19.7690335 L65.2277637,16.3068514 L69.5744887,19.7690335 L73.6086327,19.7690335 L74.4144532,17.6880826 L72.2171429,17.6880826 L67.84605,14.2102934 L72.5994665,10.4047545 L72.5994665,5.8266625 L67.1545065,5.8266625 L67.1545065,3.7457116 L71.7928058,3.7457116 L72.5994665,1.66476071 L67.1545065,1.66476071 L67.1545065,0 L63.5245332,0 Z M52.2312828,0 L52.2312828,1.66476071 L50.4162962,1.66476071 L50.4162962,3.7457116 L52.2312828,3.7457116 L52.2312828,10.3527307 L50.4162962,11.8614201 L50.4162962,14.7747513 L52.2312828,13.2660619 L52.2312828,17.6880826 L50.4162962,17.6880826 L50.4162962,19.7690335 L55.8612562,19.7690335 L55.8612562,10.2486831 L57.6762428,8.73912668 L57.6762428,5.8266625 L55.8612562,7.33535189 L55.8612562,3.7457116 L57.6762428,3.7457116 L57.6762428,1.66476071 L55.8612562,1.66476071 L55.8612562,0 L52.2312828,0 Z M33.879751,0 L33.879751,1.24857053 L25.4098133,1.24857053 L25.4098133,3.32952143 L45.7779969,3.32952143 L46.5846577,1.24857053 L38.1147199,1.24857053 L38.1147199,0 L33.879751,0 Z M0,0.416190178 L0,2.28904598 L9.2765985,2.28904598 L9.2765985,3.53761652 L0,3.53761652 L0,9.98856428 L3.42914841,9.98856428 L3.42914841,5.41047232 L9.2765985,5.41047232 L9.2765985,9.98856428 L12.7049066,9.98856428 L12.7049066,5.41047232 L18.5540373,5.41047232 L18.5540373,9.98856428 L21.9815051,9.98856428 L21.9815051,3.53761652 L12.7049066,3.53761652 L12.7049066,2.28904598 L21.9815051,2.28904598 L21.9815051,0.416190178 L0,0.416190178 Z M40.1313718,3.7457116 L40.1313718,5.20324429 L31.6605937,5.20324429 L31.6605937,3.7457116 L27.4264651,3.7457116 L27.8676077,5.20324429 L25.0064829,5.20324429 L25.0064829,7.28332812 L46.987988,7.28332812 L46.987988,5.20324429 L43.925198,5.20324429 L44.3663406,3.7457116 L40.1313718,3.7457116 Z M13.9148977,9.98856428 L17.3440462,9.98856428 L17.3440462,6.65904285 L13.9148977,6.65904285 L13.9148977,9.98856428 Z M4.63829925,9.98856428 L8.06744766,9.98856428 L8.06744766,6.65904285 L4.63829925,6.65904285 L4.63829925,9.98856428 Z M25.8131436,8.53189865 L25.8131436,14.7747513 L29.5498315,14.7747513 L23.9989973,19.7690335 L28.8381214,19.7690335 L35.2914073,13.942371 L35.2914073,12.6938004 L29.2414518,12.6938004 L29.2414518,10.6128495 L42.7530192,10.6128495 L42.7530192,12.6938004 L36.9047288,12.6938004 L36.9047288,19.7690335 L46.987988,19.7690335 L48.3996443,16.0233219 L44.769671,16.0233219 L44.1419881,17.6880826 L40.3330369,17.6880826 L40.3330369,14.7747513 L46.1813273,14.7747513 L46.1813273,8.53189865 L25.8131436,8.53189865 Z M0,19.7690335 L21.9815051,19.7690335 L21.9815051,11.2371348 L0,11.2371348 L0,19.7690335 Z M12.7049066,14.5657892 L18.5540373,14.5657892 L18.5540373,13.1091236 L12.7049066,13.1091236 L12.7049066,14.5657892 Z M3.42914841,13.1091236 L9.2765985,13.1091236 L9.2765985,14.5666562 L5.6457849,14.5666562 L4.83996443,16.439512 L9.2765985,16.439512 L9.2765985,17.8961777 L3.42914841,17.8961777 L3.42914841,13.1091236 Z M12.7049066,17.8961777 L18.5540373,17.8961777 L18.5540373,16.439512 L12.7049066,16.439512 L12.7049066,17.8961777 Z" id="path-27"></path>
        <path d="M0,11.2373949 L21.9806649,11.2373949 L21.9806649,11.4836408 L0.237796864,11.4836408 L0.237796864,19.7692936 L0,19.7692936 L0,11.2373949 Z M12.7049066,3.78386237 L12.7049066,3.53761652 L21.9806649,3.53761652 L21.9806649,3.78386237 L12.7049066,3.78386237 Z M4.83988041,16.4395987 L5.64654114,14.5667429 L5.88181719,14.5667429 L5.09028134,16.4395987 L4.83988041,16.4395987 Z M29.5434454,14.7802138 L29.947616,14.7802138 L24.4018235,19.7692936 L23.9984931,19.7692936 L29.5434454,14.7802138 Z M0,0.416190178 L21.9806649,0.416190178 L21.9806649,0.662436034 L0.237796864,0.662436034 L0.237796864,2.28904598 L0,2.28904598 L0,0.416190178 Z M67.1545065,1.66476071 L72.5994665,1.66476071 L72.5045158,1.91100657 L67.1545065,1.91100657 L67.1545065,1.66476071 Z M9.2765985,9.98856428 L9.2765985,5.41047232 L9.51439536,5.41047232 L9.51439536,9.98856428 L9.2765985,9.98856428 Z M50.4162962,3.7457116 L50.4162962,1.66476071 L50.654093,1.66476071 L50.654093,3.7457116 L50.4162962,3.7457116 Z M38.1147199,1.24883065 L46.5846577,1.24883065 L46.489707,1.49420945 L38.1147199,1.49420945 L38.1147199,1.24883065 Z M9.27685058,2.28904598 L9.51464744,2.28904598 L9.51464744,3.78386237 L0.238048945,3.78386237 L0.238048945,9.98856428 L0.000252081481,9.98856428 L0.000252081481,3.53761652 L9.27685058,3.53761652 L9.27685058,2.28904598 Z M36.9047288,19.7690335 L36.9047288,12.6938004 L37.1433659,12.6938004 L37.1433659,19.7690335 L36.9047288,19.7690335 Z M52.2307787,13.2663221 L52.4694158,13.0677647 L52.4694158,17.6874756 L52.2307787,17.6874756 L52.2307787,13.2663221 Z M52.4694998,3.7457116 L52.4694998,10.1541733 L52.4694998,10.4645818 L50.666277,11.9628664 L50.666277,14.5666562 L50.4167163,14.7747513 L50.4167163,12.1709615 L50.4167163,11.8614201 L52.2308627,10.3527307 L52.2308627,3.7457116 L52.4694998,3.7457116 Z M25.8129756,14.7744912 L25.8129756,8.53163854 L46.1811592,8.53163854 L46.1811592,8.77701733 L26.0516127,8.77701733 L26.0516127,14.7744912 L25.8129756,14.7744912 Z M69.4094594,7.90743997 L69.4094594,8.82826074 L69.4102997,8.82652662 L69.4094594,9.13433394 L65.4492593,12.3043158 L65.2568371,12.1517127 L69.1708222,9.01814751 L69.1708222,7.90743997 L69.4094594,7.90743997 Z M50.4162962,19.7690335 L50.4162962,17.6880826 L50.654093,17.6880826 L50.654093,19.7690335 L50.4162962,19.7690335 Z M43.924946,5.20211711 L46.987736,5.20211711 L46.987736,5.4474959 L43.8224328,5.4474959 L43.924946,5.20211711 Z M33.879751,0.000260118861 L38.1147199,0.000260118861 L38.1147199,0.245638911 L34.1175479,0.245638911 L34.1175479,1.49420945 L34.0225972,1.49420945 L33.879751,1.49420945 L25.6476101,1.49420945 L25.6476101,3.32891448 L25.4098133,3.32891448 L25.4098133,1.49420945 L25.4098133,1.24883065 L25.6476101,1.24883065 L33.879751,1.24883065 L33.879751,0.245638911 L33.879751,0.000260118861 Z M25.2447839,5.44810285 L25.2447839,7.28367495 L25.0061468,7.28367495 L25.0061468,5.44810285 L25.0061468,5.20185699 L25.2447839,5.20185699 L27.8605494,5.20185699 L27.4269693,3.74605843 L27.6647661,3.74605843 L28.1714499,5.44810285 L28.0193608,5.44810285 L27.9336531,5.44810285 L25.2447839,5.44810285 Z M40.3696728,5.4501838 L40.1310356,5.4501838 L40.1310356,5.44844967 L31.6619382,5.44844967 L31.6619382,5.20220382 L40.1310356,5.20220382 L40.1310356,3.74553819 L40.3696728,3.74553819 L40.3696728,5.20220382 L40.3696728,5.44844967 L40.3696728,5.4501838 Z M52.2307787,0.000260118861 L55.8615923,0.000260118861 L55.8615923,0.245638911 L52.4694158,0.245638911 L52.4694158,1.65114783 L52.2307787,1.65114783 L52.2307787,0.245638911 L52.2307787,0.000260118861 Z M58.0797412,5.82657579 L58.3175381,5.82657579 L63.5247012,5.82657579 L63.5247012,6.07282165 L58.3175381,6.07282165 L58.3175381,7.90752668 L58.0797412,7.90752668 L58.0797412,6.07282165 L58.0797412,5.82657579 Z M67.1545065,6.07204129 L67.1545065,5.8266625 L72.5994665,5.8266625 L72.5994665,6.07204129 L67.1545065,6.07204129 Z M63.5245332,0.000260118861 L67.1545065,0.000260118861 L67.1545065,0.245638911 L63.76233,0.245638911 L63.76233,1.91039962 L58.3098076,1.91039962 L58.3173701,3.74597172 L58.0795732,3.74597172 L58.0795732,1.91039962 L58.0795732,1.66502083 L58.3089673,1.66502083 L63.5245332,1.66502083 L63.5245332,0.245638911 L63.5245332,0.000260118861 Z M58.3397213,17.6878225 L62.6402313,14.2455829 L62.8326535,14.3981859 L58.4153457,17.9332013 L56.7045527,17.9332013 L56.7045527,19.7687734 L56.4659156,19.7687734 L56.4659156,17.9332013 L56.4659156,17.6878225 L56.7045527,17.6878225 L58.3397213,17.6878225 Z" id="path-29"></path>
    </defs>
    <g id="雷竞技2.0-copy-2" stroke="none" stroke-width="1" fill="none" fill-rule="evenodd">
        <g id="icon切图" transform="translate(-24.000000, -207.000000)">
            <g id="logo-中英文" transform="translate(24.000000, 207.000000)">
                <g id="Group" transform="translate(36.893525, 6.979856)">
                    <path d="M13.9397698,31.0505392 L0,7.59520867 L23.9309353,7.59520867 L27.8795396,7.59520867 L13.9397698,31.0505392 Z M15.9140719,34.3725388 L31.8281439,7.59520867 L47.8618705,7.59520867 L23.9309353,47.8618705 L15.9140719,34.3725388 Z" id="Combined-Shape" fill="#000000" style="mix-blend-mode: multiply;"></path>
                    <polygon id="Path" fill="url(#radialGradient-1)" points="13.9397698 31.0505392 0 7.59520867 27.8795396 7.59520867"></polygon>
                    <polygon id="Path" fill-opacity="0.3" fill="url(#linearGradient-2)" points="13.9397698 31.0505392 23.9309353 7.59520867 27.8795396 7.59520867"></polygon>
                    <polygon id="Path" fill="url(#linearGradient-3)" points="15.9140719 34.3725388 31.8281439 7.59520867 47.8618705 7.59520867 23.9309353 47.8618705"></polygon>
                    <polygon id="Path" fill-opacity="0.3" fill="url(#linearGradient-4)" points="15.9140719 34.3725388 31.8281439 7.59520867 35.8950007 7.59520867"></polygon>
                    <polygon id="Combined-Shape" fill="url(#radialGradient-5)" points="13.9397698 31.0505392 0 7.59520867 8.72824775 7.59520867"></polygon>
                    <g id="Combined-Shape">
                        <use fill="url(#linearGradient-6)" xlink:href="#path-8"></use>
                        <use fill-opacity="0.8" fill="url(#radialGradient-7)" xlink:href="#path-8"></use>
                    </g>
                    <polygon id="Path" fill="url(#radialGradient-10)" points="16.4078903 35.2037229 47.8618705 7.59520867 23.9309353 47.8618705"></polygon>
                    <g id="Path">
                        <use fill="url(#linearGradient-11)" xlink:href="#path-13"></use>
                        <use fill-opacity="0.5" fill="url(#radialGradient-12)" xlink:href="#path-13"></use>
                    </g>
                    <path d="M11.3671942,42.9189569 C11.2859833,42.9189569 11.2460984,42.8787706 11.2475396,42.7983981 L15.9140719,34.3592773 L35.4177842,1.56726528 L35.5374388,1.56726528 L16.3926906,35.2031894 L11.4868489,42.7983981 C11.4325525,42.8787706 11.3926676,42.9189569 11.3671942,42.9189569 Z" id="Combined-Shape" fill="url(#linearGradient-14)"></path>
                    <g id="Combined-Shape">
                        <use fill="url(#linearGradient-15)" xlink:href="#path-17"></use>
                        <use fill="url(#radialGradient-16)" xlink:href="#path-17"></use>
                    </g>
                    <path d="M10.6492662,36.4087781 L27.0419568,7.59520867 L31.5888345,0.361676603 C31.7291328,0.120558868 31.8487874,0 31.9477986,0 C32.0484845,0 32.0883694,0.0803725785 32.0674532,0.241117736 L27.8795396,7.59520867 L10.7689209,36.4087781 L10.6492662,36.4087781 Z" id="Combined-Shape" fill="url(#linearGradient-18)"></path>
                    <g id="Combined-Shape">
                        <use fill="url(#linearGradient-19)" xlink:href="#path-21"></use>
                        <use fill="url(#radialGradient-20)" xlink:href="#path-21"></use>
                    </g>
                </g>
                <g id="Page-1" transform="translate(3.988489, 66.807194)">
                    <g id="Fill-1">
                        <use fill="url(#radialGradient-22)" xlink:href="#path-24"></use>
                        <use fill="url(#radialGradient-23)" xlink:href="#path-24"></use>
                    </g>
                    <path d="M96.0867453,0.000261856222 L112.51183,0.000261856222 L111.690576,3.35114865 L106.352423,3.35114865 L106.352423,16.7590601 L102.246152,16.7590601 L102.246152,3.35114865 L96.0867453,3.35114865 L96.0867453,0.000261856222 Z M77.6085251,0.000261856222 L92.3911013,0.000261856222 L91.569847,3.35114865 L81.7147962,3.35114865 L81.7147962,6.70378115 L89.9273386,6.70378115 L89.9273386,10.0546679 L81.7147962,10.0546679 L81.7147962,13.4073004 L93.2115,13.4073004 L92.3911013,16.7590601 L77.6085251,16.7590601 L77.6085251,0.000261856222 Z M57.8984235,0.000261856222 L72.2695171,0.000261856222 L72.2695171,6.70378115 L74.3243636,6.70378115 L74.3243636,16.7590601 L57.8984235,16.7590601 L57.8984235,13.4073004 L70.217237,13.4073004 L70.217237,10.0546679 L64.0578302,10.0546679 L64.8790844,6.70378115 L68.1641014,6.70378115 L68.1641014,3.35114865 L62.0046946,3.35114865 L62.0046946,11.7322935 L57.8984235,11.7322935 L57.8984235,0.000261856222 Z" id="Combined-Shape" fill="#A9CAE8"></path>
                    <path d="M37.3296397,0 L44.4365951,9.98293442 L44.4365951,16.7587982 L44.1424151,16.7587982 L44.1424151,10.0544061 L36.9564405,0 L37.3296397,0 Z M22.9951185,0 L34.0820507,0 L34.1427463,0.282517986 L23.2547474,0.282517986 L19.6227531,16.7587982 L19.2994745,16.7587982 L22.9951185,0 Z M27.2070481,10.0544061 L26.3826821,13.4079114 L26.0739664,13.4079114 L26.8969316,10.0544061 L27.2070481,10.0544061 Z M6.43558026,7.54058635 L6.43558026,9.12258577 L13.0741867,16.7587982 L12.7302961,16.7587982 L6.15940675,9.21733903 L6.15940675,7.54058635 L6.43558026,7.54058635 Z M0,0 L16.4250847,0 L16.4250847,0.282517986 L0.274816634,0.282517986 L0.274816634,16.7587982 L0,16.7587982 L0,0 Z" id="Combined-Shape" fill="#FFFFFF" style="mix-blend-mode: overlay;"></path>
                    <path d="M96.0867453,0.000261856222 L112.51183,0.000261856222 L112.439388,0.282517986 L96.3677137,0.282517986 L96.3677137,3.35114865 L96.0867453,3.35114865 L96.0867453,0.000261856222 Z M102.246152,3.35114865 L102.51298,3.35114865 L102.51298,16.7590601 L102.246152,16.7590601 L102.246152,3.35114865 Z M77.6085251,0.000261856222 L92.3911013,0.000261856222 L92.313229,0.29348487 L77.9206135,0.29348487 L77.9257126,16.7590601 L77.6085251,16.7590601 L77.6085251,0.000261856222 Z M65.1638984,6.70378115 L64.3384421,10.0546679 L64.0578302,10.0546679 L64.8790844,6.70378115 L65.1638984,6.70378115 Z M58.1739715,13.40981 L58.1739715,16.7573653 L57.8934519,16.7573653 L57.8984235,13.40981 L58.1739715,13.40981 Z M57.8984235,0.000261856222 L72.2695171,0.000261856222 L72.2863509,0.243450808 L58.1572617,0.243450808 L58.1572617,11.7322935 L57.8984235,11.7322935 L57.8984235,0.000261856222 Z" id="Combined-Shape" fill-opacity="0.8" fill="#FFFFFF" style="mix-blend-mode: overlay;"></path>
                </g>
                <g id="Page-1" transform="translate(22.933813, 89.741007)">
                    <mask id="mask-28" fill="white">
                        <use xlink:href="#path-27"></use>
                    </mask>
                    <g id="Clip-2">
                        <use fill="url(#radialGradient-25)" xlink:href="#path-27"></use>
                        <use fill="url(#radialGradient-26)" xlink:href="#path-27"></use>
                    </g>
                    <g id="Combined-Shape" fill="#FFFFFF">
                        <use style="mix-blend-mode: overlay;" xlink:href="#path-29"></use>
                        <use style="mix-blend-mode: overlay;" xlink:href="#path-29"></use>
                    </g>
                </g>
            </g>
        </g>
    </g>
</svg>