<?xml version="1.0" encoding="utf-8"?>
<!-- Generator: Adobe Illustrator 21.0.0, SVG Export Plug-In . SVG Version: 6.00 Build 0)  -->
<!DOCTYPE svg PUBLIC "-//W3C//DTD SVG 1.1//EN" "http://www.w3.org/Graphics/SVG/1.1/DTD/svg11.dtd">
<svg version="1.1" id="图层_1" xmlns="http://www.w3.org/2000/svg" xmlns:xlink="http://www.w3.org/1999/xlink" x="0px" y="0px"
	 viewBox="0 0 28 28" style="enable-background:new 0 0 28 28;" xml:space="preserve">
<style type="text/css">
	.st0{fill:#E5B362;}
</style>
<g id="Page-1">
	<g id="控件" transform="translate(-136.000000, -137.000000)">
		<g id="csgo" transform="translate(136.000000, 137.000000)">
			<g id="Group-5_1_" transform="translate(2.000000, 2.000000)">
				<path id="Combined-Shape_2_" class="st0" d="M11.5,23.4c-4-0.2-7.4-2.3-9.3-5.5c-1-1.7-1.6-3.8-1.6-5.9C0.5,5.7,5.7,0.5,12,0.5
					S23.5,5.7,23.5,12S18.3,23.5,12,23.5C11.8,23.5,11.7,23.5,11.5,23.4z M11,22.1c0.3,0,0.6,0,1,0c5.6,0,10.2-4.6,10.2-10.2
					c0-0.9-0.1-1.8-0.4-2.7h-3.4v0.4h-2.7c-0.2,0.4-0.7,0.7-0.9,0.8c-0.2,0.1-0.2,0.4-0.2,0.4c0.3,0.1,0.2,0.4,0.3,1
					s-0.3,0.3-0.5,0.6c-0.2,0.4-0.1,1.2-0.4,1.4c-0.3,0.2-0.8,0.8-1.3,0.8c-0.5,0-1.3-0.4-1.7-0.6c-0.3-0.2-0.8-0.4-0.9-0.6
					c-0.2-0.1-0.3,0.3-0.3,0.3l0,0.5c0.7,0.1,0.6,1,0.6,1.5c0,0.5-0.1,1.8-0.3,2.2c-0.2,0.4-0.4,0.4-0.4,0.4l-0.7,0.1v0.8
					c0.5,0.6,1.4,1.8,1.8,2.7C11,22,11,22.1,11,22.1z M2.1,14.2v-0.8c0-0.4,0.3-0.4,0.3-0.4s0.2,0,0.6,0c0.4,0,0.4-0.2,0.4-0.2
					S3.2,11.9,3.2,11c0-0.8,0.3-1.5,0.6-2.1c0.7-1.2,1.8-1.1,2-1.1c0.2,0,0.3,0.3,0.5,0.3c0.2,0,0.2-0.7,0.1-0.8
					C6.2,7.1,6.3,6.9,6.3,6.9c0-1.9,1.2-2.6,2.3-2.6c1.1,0,1.6,0.6,1.6,0.6c0.5,0,0.4,0.3,0.4,0.3v0.5c0.3,0.3,0.2,1.1,0.2,1.3
					c0,0.2-0.2,0.3-0.2,0.3l-0.4,0.1c0,0-0.2,0.1-0.3,0.3c-0.1,0.1,0,0.7,0,0.7l1,0.1V8.2h0.6V7.5h0.2V8h0.4l0,0.2h6.1v0.2h0.3v-1
					h0.2v1h0.4v0.4h2.5c-1.3-4.1-5.2-7.1-9.7-7.1C6.4,1.8,1.8,6.4,1.8,12C1.8,12.8,1.9,13.5,2.1,14.2z"/>
			</g>
		</g>
	</g>
</g>
<title>csgo</title>
<desc>Created with Sketch.</desc>
</svg>
