<?xml version="1.0" encoding="UTF-8"?>
<svg width="28px" height="28px" viewBox="0 0 28 28" version="1.1" xmlns="http://www.w3.org/2000/svg" xmlns:xlink="http://www.w3.org/1999/xlink">
    <!-- Generator: Sketch 49.2 (51160) - http://www.bohemiancoding.com/sketch -->
    <title>DOTA</title>
    <desc>Created with Sketch.</desc>
    <defs></defs>
    <g id="Page-1" stroke="none" stroke-width="1" fill="none" fill-rule="evenodd">
        <g id="游戏筛选" transform="translate(-32.000000, -415.000000)" fill="#CB2828">
            <g id="DOTA" transform="translate(32.000000, 415.000000)">
                <path d="M3.81818182,23.5578058 L3.81818182,19.4807129 L4.14218972,18.638339 L4.14218972,17.1584362 L3.81818182,16.2973903 L3.81818182,14.4781272 L4.2504504,13.6061568 L3.81818182,12.4853738 L4.01844371,11.0296298 L3.81818182,9.09451571 L4.01844371,6.41412908 L3.81818182,4.49563876 L4.01844371,3.81818182 L9.45778217,3.81818182 L10.6384277,4.18968772 L11.9107712,3.81818182 L15.2343993,3.81818182 L16.4130083,4.18968772 L17.6380179,3.81818182 L21.8708385,3.81818182 L22.94195,4.18968772 L23.5700795,3.81818182 L24.1818182,4.32994496 L24.1818182,10.6692287 L23.8664329,11.8129661 L24.1818182,12.4853738 L24.1818182,13.6061568 L23.8664329,15.239169 L24.1818182,15.5447665 L24.1818182,24.1818182 L23.3566118,23.5578058 L22.2461603,23.5578058 L22.5178888,24.1818182 L20.9039085,24.1818182 L19.4755083,23.8787842 L15.5926181,23.8787842 L14.4246049,24.1818182 L13.3771529,23.8787842 L12.5963024,24.1818182 L11.1101851,23.695146 L9.45778217,23.695146 L8.69841974,23.8787842 L7.66145463,23.5578058 L6.04304643,23.5578058 L4.45345792,23.7976851 L3.81818182,23.5578058 Z M15.9121205,8.38320707 L19.7504217,11.2868319 L20.0766047,11.0850164 L20.0766047,10.4628684 L20.3858532,8.38320707 L19.0694691,7.3943093 L17.2526634,7.97295588 L16.4629572,7.97295588 L15.9121205,8.38320707 Z M7.66261985,6.97273393 L6.08080808,7.87997159 L18.1935369,20.4177024 L20.7351851,20.5896884 L21.8675426,16.8302162 L10.6347793,9.25517676 L10.1081765,9.0994873 L9.90420728,8.76250084 L8.89169034,8.07968972 L7.66261985,6.97273393 Z M7.70184881,16.0141158 L6.33590421,19.3683083 L7.98147491,20.8244752 L9.54366788,20.8244752 L10.1315585,20.401001 L11.826871,19.861661 L7.70184881,16.0141158 Z" id="Combined-Shape"></path>
            </g>
        </g>
    </g>
</svg>