<?xml version="1.0" encoding="UTF-8" standalone="no"?>
<!DOCTYPE svg PUBLIC "-//W3C//DTD SVG 1.1//EN" "http://www.w3.org/Graphics/SVG/1.1/DTD/svg11.dtd">
<svg width="100%" height="100%" viewBox="0 0 28 28" version="1.1" xmlns="http://www.w3.org/2000/svg" xmlns:xlink="http://www.w3.org/1999/xlink" xml:space="preserve" xmlns:serif="http://www.serif.com/" style="fill-rule:evenodd;clip-rule:evenodd;stroke-linejoin:round;stroke-miterlimit:1.41421;">
    <g id="nba-2k">
        <g id="Combined-Shape">
            <path id="path-1" d="M7.636,1.909L10.023,0L14,0L14,13.364L12.409,13.364L7.636,3.838L7.636,1.909ZM7.636,26.091L7.636,24.162L12.409,14.636L14,14.636L14,28L10.023,28L7.636,26.091ZM10.818,14.636L7.636,21L7.636,14.636L10.818,14.636ZM10.818,13.364L7.636,13.364L7.636,7L10.818,13.364Z" style="fill:rgb(35,99,175);"/>
            <path id="path-11" serif:id="path-1" d="M7.636,1.909L10.023,0L14,0L14,13.364L12.409,13.364L7.636,3.838L7.636,1.909ZM7.636,26.091L7.636,24.162L12.409,14.636L14,14.636L14,28L10.023,28L7.636,26.091ZM10.818,14.636L7.636,21L7.636,14.636L10.818,14.636ZM10.818,13.364L7.636,13.364L7.636,7L10.818,13.364Z" style="fill:rgb(28,135,201);fill-opacity:0.498039;"/>
        </g>
        <g id="Combined-Shape1" serif:id="Combined-Shape" transform="matrix(-1,0,0,1,36.9091,0)">
            <path d="M15.273,1.909L17.659,0L21.636,0L21.636,13.364L20.045,13.364L15.273,3.838L15.273,1.909ZM15.273,26.091L15.273,24.162L20.045,14.636L21.636,14.636L21.636,28L17.659,28L15.273,26.091ZM18.455,14.636L15.273,21L15.273,14.636L18.455,14.636ZM18.455,13.364L15.273,13.364L15.273,7L18.455,13.364Z" style="fill:rgb(212,3,57);"/>
        </g>
    </g>
</svg>
