<?xml version="1.0" encoding="UTF-8"?>
<svg width="28px" height="28px" viewBox="0 0 28 28" version="1.1" xmlns="http://www.w3.org/2000/svg" xmlns:xlink="http://www.w3.org/1999/xlink">
    <!-- Generator: Sketch 49.3 (51167) - http://www.bohemiancoding.com/sketch -->
    <title>CALL of DUTY</title>
    <desc>Created with Sketch.</desc>
    <defs></defs>
    <g id="Page-1" stroke="none" stroke-width="1" fill="none" fill-rule="evenodd">
        <g id="游戏筛选" transform="translate(-283.000000, -599.000000)" fill="#B9CFF0">
            <g id="CALL-of-DUTY" transform="translate(283.000000, 599.000000)">
                <g id="Page-1" transform="translate(0.000000, 3.818182)">
                    <path d="M4.63158946,0.101104503 C2.77646579,0.101104503 1.2726778,1.22892523 1.2726778,2.62012319 L1.2726778,8.12202804 C1.2726778,9.5133271 2.77646579,10.6411478 4.63158946,10.6411478 C6.4866142,10.6411478 7.99040218,9.5133271 7.99040218,8.12202804 L7.99040218,6.38646814 L5.12114423,6.38646814 L5.12114423,8.36518437 C5.12114423,8.66758794 4.88121491,8.91286746 4.58528558,8.91286746 C4.28925731,8.91286746 4.04932798,8.66758794 4.04932798,8.36518437 L4.04932798,2.36756415 C4.04932798,2.06505947 4.28925731,1.81988105 4.58528558,1.81988105 C4.88121491,1.81988105 5.12114423,2.06505947 5.12114423,2.36756415 L5.12114423,4.68447494 L7.99040218,4.68447494 L7.99040218,2.62012319 C7.99040218,1.22892523 6.4866142,0.101104503 4.63158946,0.101104503" id="Fill-1"></path>
                    <polygon id="Fill-4" points="12.0139725 0.320147409 11.329605 0.320147409 9.59815625 0.320147409 8.08932233 10.3800455 10.7607004 10.3800455 11.6816333 2.98778972 12.1968135 6.8919401 11.6511598 6.8919401 11.4863259 8.50961215 12.4102269 8.50961215 12.657082 10.3800455 15.3284601 10.3800455 13.7454213 0.320147409"></polygon>
                    <polygon id="Fill-6" points="18.6759442 10.3800455 20.456863 10.3800455 20.456863 8.38323152 18.6759442 8.38323152 18.6759442 0.320147409 15.9056262 0.320147409 15.9056262 10.3800455 16.7218806 10.3800455"></polygon>
                    <polygon id="Fill-8" points="25.7006792 10.3800455 25.7006792 8.38323152 23.9197605 8.38323152 23.9197605 0.320147409 21.1494425 0.320147409 21.1494425 10.3800455 21.9656969 10.3800455 23.9197605 10.3800455"></polygon>
                    <path d="M3.74950671,16.7496291 L3.74950671,18.9726138 C3.74950671,18.9726138 3.74950671,19.6466776 3.00745724,19.6466776 L2.76010742,19.6466776 L2.76010742,12.9413258 L3.00745724,12.9413258 C3.74950671,12.9413258 3.74950671,13.6153895 3.74950671,13.6153895 L3.74950671,16.3438968 L3.74950671,16.7496291 Z M3.26608622,11.2394337 L2.76010742,11.2394337 L-1.97879859e-05,11.2394337 L-1.97879859e-05,12.9413258 L-1.97879859e-05,19.6466776 L-1.97879859e-05,21.3485697 L-1.97879859e-05,21.349884 L2.76010742,21.349884 L2.76010742,21.3485697 L3.26608622,21.3485697 C3.26608622,21.3485697 5.01099081,21.379811 5.76540777,20.9707421 C6.23369046,20.7168687 6.53219223,20.1750497 6.53219223,19.5289919 L6.53219223,16.7496291 L6.53219223,16.3438968 L6.53219223,13.3499902 C6.53219223,11.1130531 3.26608622,11.2394337 3.26608622,11.2394337 Z" id="Fill-14"></path>
                    <path d="M10.9813922,19.3904889 C10.9813922,19.6443623 10.7799505,19.850211 10.5315124,19.850211 C10.2830742,19.850211 10.0816325,19.6443623 10.0816325,19.3904889 L10.0816325,11.2394438 L7.31131449,11.2394438 L7.31131449,19.1687667 C7.31131449,20.5047616 8.76761131,21.587793 10.5639647,21.587793 C12.360417,21.587793 13.8166148,20.5047616 13.8166148,19.1687667 L13.8166148,11.2381295 L10.9813922,11.2381295 L10.9813922,19.3904889 Z" id="Fill-17"></path>
                    <polygon id="Fill-19" points="14.4350191 13.2784082 16.1004749 13.2784082 16.1004749 21.3329996 18.9862558 21.3329996 18.9862558 13.2784082 20.6929696 13.2784082 20.6929696 11.2381194 14.4350191 11.2381194"></polygon>
                    <polygon id="Fill-21" points="21.2618742 11.2381497 23.2406728 17.6764845 23.2406728 21.3330299 25.813111 21.3330299 25.813111 17.6764845 23.8343124 11.2381497"></polygon>
                    <polygon id="Fill-23" points="25.3678813 11.2381497 24.8979166 12.7672542 26.1841357 16.9521718 27.9403194 11.2381497"></polygon>
                </g>
            </g>
        </g>
    </g>
</svg>