<?xml version="1.0" encoding="UTF-8" standalone="no"?>
<!DOCTYPE svg PUBLIC "-//W3C//DTD SVG 1.1//EN" "http://www.w3.org/Graphics/SVG/1.1/DTD/svg11.dtd">
<svg width="100%" height="100%" viewBox="0 0 28 28" version="1.1" xmlns="http://www.w3.org/2000/svg" xmlns:xlink="http://www.w3.org/1999/xlink" xml:space="preserve" xmlns:serif="http://www.serif.com/" style="fill-rule:evenodd;clip-rule:evenodd;stroke-linejoin:round;stroke-miterlimit:1.41421;">
    <g id="炉石传说">
        <path id="Combined-Shape" d="M10.523,22.205C10.073,22.014 9.642,21.787 9.234,21.528L5.091,22.909L6.472,18.766C6.213,18.358 5.986,17.927 5.795,17.477L0,14L5.795,10.523C5.986,10.073 6.213,9.642 6.472,9.234L5.091,5.091L9.234,6.472C9.642,6.213 10.073,5.986 10.523,5.795L14,0L17.477,5.795C17.927,5.986 18.358,6.213 18.766,6.472L22.909,5.091L21.528,9.234C21.787,9.642 22.014,10.073 22.205,10.523L28,14L22.205,17.477C22.014,17.927 21.787,18.358 21.528,18.766L22.909,22.909L18.766,21.528C18.358,21.787 17.927,22.014 17.477,22.205L14,28L10.523,22.205ZM14,21.636C18.217,21.636 21.636,18.217 21.636,14C21.636,9.783 18.217,6.364 14,6.364C9.783,6.364 6.364,9.783 6.364,14C6.364,18.217 9.783,21.636 14,21.636Z" style="fill:rgb(152,104,61);"/>
        <g id="Path-4">
            <path id="path-1" d="M12.63,13.235C12.385,13.035 12.26,12.725 12.256,12.305C12.747,12.015 13.177,11.943 13.545,12.088C14.097,12.305 14.935,12.674 14.926,14.116C14.917,15.559 13.478,16.171 12.256,16.039C11.034,15.907 9.43,14.382 9.169,13.235C8.996,12.47 8.909,11.737 8.909,11.035L8.909,10.424L9.369,10.212L10.661,8.752C11.778,7.994 12.578,7.622 13.062,7.637C13.788,7.659 15.056,7.681 15.855,8.216C16.655,8.752 18.107,9.671 18.458,10.759C18.808,11.847 19.22,13.362 18.982,14.116C18.744,14.87 18.815,15.419 18.458,16.039C18.1,16.66 17.654,17.699 17.237,18.039C16.82,18.378 15.978,18.816 15.546,19.049C15.114,19.282 14.028,19.433 13.545,19.511C13.062,19.588 12.819,19.909 12.256,19.806C11.693,19.702 10.769,19.972 10.292,19.511C9.815,19.049 8.97,18.676 9.169,18.582C9.369,18.488 10.143,18.039 10.483,18.039C10.823,18.039 11.39,17.966 11.823,17.775C12.256,17.584 12.58,17.342 13.062,17.231C13.545,17.12 13.904,16.94 14.415,16.688C14.926,16.436 15.236,16.152 15.546,15.752C15.855,15.353 16.381,14.951 16.412,14.534C16.444,14.116 16.72,13.244 16.444,12.305C16.168,11.366 15.708,10.428 15.317,10.212C14.926,9.996 14.028,9.781 13.545,9.996C13.062,10.212 12.07,10.288 11.823,10.759C11.576,11.229 11.174,11.611 11.142,12.088C11.11,12.564 11.194,13.305 11.509,13.518C11.823,13.731 12.998,13.534 12.63,13.235Z" style="fill:rgb(51,138,207);"/>
            <path id="path-11" serif:id="path-1" d="M12.63,13.235C12.385,13.035 12.26,12.725 12.256,12.305C12.747,12.015 13.177,11.943 13.545,12.088C14.097,12.305 14.935,12.674 14.926,14.116C14.917,15.559 13.478,16.171 12.256,16.039C11.034,15.907 9.43,14.382 9.169,13.235C8.996,12.47 8.909,11.737 8.909,11.035L8.909,10.424L9.369,10.212L10.661,8.752C11.778,7.994 12.578,7.622 13.062,7.637C13.788,7.659 15.056,7.681 15.855,8.216C16.655,8.752 18.107,9.671 18.458,10.759C18.808,11.847 19.22,13.362 18.982,14.116C18.744,14.87 18.815,15.419 18.458,16.039C18.1,16.66 17.654,17.699 17.237,18.039C16.82,18.378 15.978,18.816 15.546,19.049C15.114,19.282 14.028,19.433 13.545,19.511C13.062,19.588 12.819,19.909 12.256,19.806C11.693,19.702 10.769,19.972 10.292,19.511C9.815,19.049 8.97,18.676 9.169,18.582C9.369,18.488 10.143,18.039 10.483,18.039C10.823,18.039 11.39,17.966 11.823,17.775C12.256,17.584 12.58,17.342 13.062,17.231C13.545,17.12 13.904,16.94 14.415,16.688C14.926,16.436 15.236,16.152 15.546,15.752C15.855,15.353 16.381,14.951 16.412,14.534C16.444,14.116 16.72,13.244 16.444,12.305C16.168,11.366 15.708,10.428 15.317,10.212C14.926,9.996 14.028,9.781 13.545,9.996C13.062,10.212 12.07,10.288 11.823,10.759C11.576,11.229 11.174,11.611 11.142,12.088C11.11,12.564 11.194,13.305 11.509,13.518C11.823,13.731 12.998,13.534 12.63,13.235Z" style="fill:rgb(28,135,201);"/>
        </g>
    </g>
</svg>
