<?xml version="1.0" encoding="UTF-8"?>
<svg width="28px" height="28px" viewBox="0 0 28 28" version="1.1" xmlns="http://www.w3.org/2000/svg" xmlns:xlink="http://www.w3.org/1999/xlink">
    <!-- Generator: Sketch 49.2 (51160) - http://www.bohemiancoding.com/sketch -->
    <title>守护先锋</title>
    <desc>Created with Sketch.</desc>
    <defs></defs>
    <g id="Page-1" stroke="none" stroke-width="1" fill="none" fill-rule="evenodd">
        <g id="游戏筛选" transform="translate(-283.000000, -415.000000)">
            <g id="守护先锋" transform="translate(283.000000, 415.000000)">
                <path d="M21.2212089,18.0393907 C21.8909006,16.8447487 22.2727273,15.4669645 22.2727273,14 C22.2727273,11.7155494 21.3467707,9.64736763 19.8497016,8.15029845 L22.0995868,5.90041323 C24.1724518,7.97327825 25.4545455,10.8369146 25.4545455,14 C25.4545455,20.3261708 20.3261708,25.4545455 14,25.4545455 C7.67382923,25.4545455 2.54545455,20.3261708 2.54545455,14 C2.54545455,10.8369146 3.82754822,7.97327825 5.90041323,5.90041323 L8.15029845,8.15029845 C6.65322927,9.64736763 5.72727273,11.7155494 5.72727273,14 C5.72727273,15.4669645 6.10909944,16.8447487 6.77879115,18.0393907 L10.8181818,14 L13.3636364,8.90909091 L13.3636364,16.5454545 L9.18279783,20.7262931 C10.5395073,21.6996604 12.2028302,22.2727273 14,22.2727273 C15.7971482,22.2727273 17.4604528,21.6996741 18.8171533,20.7263281 L14.6360529,16.5454545 L14.6360529,8.90909091 L17.1818182,14 L21.2212089,18.0393907 Z M20.7268233,4.72772212 L18.4375983,7.01694719 C17.155286,6.20036008 15.6328908,5.72727273 14,5.72727273 C12.3671092,5.72727273 10.844714,6.20036008 9.56240174,7.01694719 L7.27317666,4.72772212 C9.16199469,3.35505869 11.4864508,2.54545455 14,2.54545455 C16.5135492,2.54545455 18.8380053,3.35505869 20.7268233,4.72772212 Z" id="Combined-Shape" fill="#B9CFF0"></path>
                <path d="M20.7268233,4.72772212 L18.4375983,7.01694719 C17.155286,6.20036008 15.6328908,5.72727273 14,5.72727273 C12.3671092,5.72727273 10.844714,6.20036008 9.56240174,7.01694719 L7.27317666,4.72772212 C9.16199469,3.35505869 11.4864508,2.54545455 14,2.54545455 C16.5135492,2.54545455 18.8380053,3.35505869 20.7268233,4.72772212 Z" id="Combined-Shape" fill="#E5B362"></path>
            </g>
        </g>
    </g>
</svg>