<?xml version="1.0" encoding="UTF-8"?>
<svg width="28px" height="28px" viewBox="0 0 28 28" version="1.1" xmlns="http://www.w3.org/2000/svg" xmlns:xlink="http://www.w3.org/1999/xlink">
    <!-- Generator: Sketch 49.2 (51160) - http://www.bohemiancoding.com/sketch -->
    <title>星际2</title>
    <desc>Created with Sketch.</desc>
    <defs></defs>
    <g id="Page-1" stroke="none" stroke-width="1" fill="none" fill-rule="evenodd">
        <g id="游戏筛选" transform="translate(-32.000000, -528.000000)">
            <g id="星际2" transform="translate(32.000000, 528.000000)">
                <path d="M13.3636364,16.1642276 L8.90909091,10.5511366 L8.90909091,10.1818197 L10.1818182,10.1818182 L11.4545455,10.8181818 L13.3636364,8.90909091 L13.3636364,16.1642276 Z M13.3636364,20.2208454 L13.3636364,25.4545455 C11.8744377,24.8667584 10.7761822,24.0951986 10.0688699,23.1398659 C9.47788568,22.3416522 9.11080167,21.4162423 8.96761782,20.3636364 L12.7272727,20.3636364 C12.9641602,20.3430649 13.1762814,20.2954679 13.3636364,20.2208454 Z M19.0909091,16.5523167 C18.7030449,16.1325139 18.4545455,15.5811084 18.4545455,14.7416215 L18.4545455,10.1818272 L19.0909091,10.1818272 L19.0909091,16.5523167 Z M19.0364163,20.3334964 C18.8961772,21.3985859 18.5277485,22.3340424 17.9311301,23.1398659 C17.2238178,24.0951986 16.1255623,24.8667584 14.6363636,25.4545455 L14.6363636,18.2718313 C15.7472533,19.5581088 17.4288776,20.1934749 19.0364163,20.3334964 Z M19.0909091,7 L17.1818182,7 C16.1856874,7.04334606 15.4214607,7.36906294 14.889138,7.97715066 C14.7979574,8.08130891 14.7136992,8.18918756 14.6363636,8.30078661 L14.6363636,4.45454545 L19.0909091,2.54545455 L22.9090909,3.81818182 L19.0909091,6.36363636 L19.0909091,7 Z M13.3636364,6.99999579 L8.90909091,6.99999775 L8.90909091,6.36363636 L5.09090909,3.81818182 L8.90909091,2.54545455 L13.3636364,4.45454545 L13.3636364,6.99999579 Z" id="Combined-Shape" fill="#1C87C9"></path>
                <path d="M3.50257054,8.05007163 C3.73446983,7.78643634 4.0517948,7.64853368 4.45454545,7.63636364 L14,7.6363546 L11.4545455,10.1818182 L10.1818182,9.54545455 L3.18181818,9.54545455 L3.18181818,8.90909091 C3.16375379,8.60004668 3.27067125,8.31370692 3.50257054,8.05007163 Z M15.2928467,8.40991211 C15.7122211,7.89421313 16.3418783,7.63636364 17.1818182,7.63636364 L26.7272727,7.63636364 L24.1819735,10.1818182 L22.9090909,9.54545455 L14.6363636,9.54545455 C14.6546446,9.30412524 14.8734723,8.92561109 15.2928467,8.40991211 Z M14,10.8181818 L17.8181818,10.8181818 C17.8216892,12.7964505 17.8531501,14.2813005 17.9125644,15.2727317 C18.0016858,16.7598786 18.8846657,17.3954412 19.7272727,17.8181818 C20.2890107,18.1000089 21.561738,18.3121301 23.5454545,18.4545455 C22.4583333,19.3030303 21.1856061,19.7272727 19.7272727,19.7272727 C17.5397727,19.7272727 14,18.7582066 14,14.5741239 C14,13.1797591 14,11.9277784 14,10.8181818 Z M3.8236195,10.8181818 L8.27272727,10.8181818 L13.3636364,17.1846147 C13.6847042,17.5155093 13.8247114,17.9943547 13.7836581,18.6211508 C13.7426048,19.2479469 13.3904764,19.6166542 12.7272727,19.7272727 L1.27272727,19.7272816 L4.45454545,16.5454545 L5.72727273,17.8181818 L9.54545455,17.8181818 L3.8236195,10.8181818 Z" id="Combined-Shape" fill="#B9CFF0"></path>
            </g>
        </g>
    </g>
</svg>