<?xml version="1.0" encoding="UTF-8"?>
<svg width="28px" height="28px" viewBox="0 0 28 28" version="1.1" xmlns="http://www.w3.org/2000/svg" xmlns:xlink="http://www.w3.org/1999/xlink">
    <!-- Generator: Sketch 49.3 (51167) - http://www.bohemiancoding.com/sketch -->
    <title>暴风英雄</title>
    <desc>Created with Sketch.</desc>
    <defs></defs>
    <g id="Page-1" stroke="none" stroke-width="1" fill="none" fill-rule="evenodd">
        <g id="游戏筛选" transform="translate(-158.000000, -599.000000)">
            <g id="火箭联盟" transform="translate(158.000000, 599.000000)">
                <path d="M8.30665881,7.15029069 C8.68796151,6.55611511 8.90909091,5.84933587 8.90909091,5.09090909 C8.90909091,4.33327635 8.68842429,3.62718306 8.3078559,3.03339408 C9.98953238,2.68856735 11.8869137,2.52650734 14,2.54721403 C16.3993105,2.52194306 18.5205226,2.73406428 20.3636364,3.18181818 C22.2067501,3.62957209 23.9037198,4.35078413 25.4545455,5.3454543 C25.4545455,9.73072975 24.5828948,13.5744812 22.8395934,16.8767087 C22.998496,16.013378 22.9704959,15.2056684 22.755593,14.45358 C22.4356194,13.6478517 21.9353811,12.9421792 21.254878,12.3365623 L22.2262594,11.7627805 C21.8350073,11.2318199 21.5168562,10.8821491 21.2718063,10.7137683 C21.0267563,10.5453874 20.7985188,10.4425792 20.5870936,10.4053436 L18.5370017,7.6481677 L16.0547471,6.38989258 L16.0547471,7.29746226 C15.5795639,7.1885563 15.0716668,7.10643531 14.5310559,7.05109929 C13.9904449,6.99576326 13.3955744,7.005247 12.7464443,7.07955049 L11.5244771,7.46975364 L10.9274087,7.46975364 L9.11293293,6.62289698 L8.55024572,7.19708027 L8.30665881,7.15029069 Z M6.39022202,8.68232084 L6.36783114,8.71686261 L6.65056627,9.53523787 C6.47477825,10.6496229 6.75311047,11.475514 7.48556291,12.0129112 C8.21801536,12.5503085 8.98632617,12.6648911 9.79049534,12.3566591 C9.7291829,13.5040124 10.1683318,14.3281837 11.1079421,14.8291731 C12.0487889,15.3308218 13.0450266,15.2542999 13.7696598,14.757435 C14.0599377,14.5583979 14.3244475,14.2971065 14.5631892,13.9735606 C14.701028,14.0116953 14.8628795,14.0387051 15.0487435,14.0545898 C15.2346075,14.0704745 15.4152694,14.0602201 15.5907292,14.0238265 C15.8525202,14.1851713 16.1235309,14.3383403 16.4037613,14.4833335 C16.6839917,14.6283268 16.9918526,14.7543249 17.3273441,14.8613279 C17.3686502,15.1384523 17.4621388,15.3836664 17.60781,15.5969701 C18.0897035,16.3025984 18.8986146,16.5558119 19.3642487,16.5558119 C19.4713264,16.5558119 19.5741935,16.5494471 19.6729624,16.5373036 C19.6820121,16.537507 19.6910527,16.5376088 19.7000843,16.5376088 C20.9784047,16.5376088 21.5383301,17.0884455 21.6340332,17.8157737 C21.6949565,18.2787807 21.5336414,18.864936 21.1500881,19.5742396 C20.2556529,20.8096874 19.2983389,21.8790015 18.278146,22.7821818 C18.4482977,21.3661803 17.4464915,19.8054042 15.2727273,18.0998535 C11.8451261,15.4105336 8.70392684,15.2586771 6.68508079,14.7211914 C4.7993505,14.2191457 3.61868398,13.0671537 3.14308122,11.2652154 C2.91951546,10.2277313 2.75867487,9.15127837 2.66055946,8.03585666 C3.3208032,8.58135038 4.1675822,8.90909091 5.09090909,8.90909091 C5.54712376,8.90909091 5.98465052,8.82907844 6.39022202,8.68232084 Z M17.1609325,23.6863688 C16.1625369,24.4217347 15.1088927,25.0111269 14,25.4545455 C11.0665766,24.2833021 8.51977961,22.0887839 6.35960898,18.8727504 C5.84357261,17.9301875 5.72546742,17.2984948 6.00529341,16.9776722 C6.42787864,16.4931752 6.84401634,16.5720215 7.63100364,16.5720215 C9.94131747,16.5720215 13.5740745,18.0189098 15.2727273,19.2383478 C16.9063341,20.4110904 17.8192888,21.6191425 17.8192888,22.2727273 C17.8192888,22.851103 17.5998367,23.3223168 17.1609325,23.6863688 Z" id="Combined-Shape" fill="#2994D6"></path>
                <path d="M17.1609325,23.6863688 C16.1625369,24.4217347 15.1088927,25.0111269 14,25.4545455 C11.0665766,24.2833021 8.51977961,22.0887839 6.35960898,18.8727504 C5.84357261,17.9301875 5.72546742,17.2984948 6.00529341,16.9776722 C6.42787864,16.4931752 6.84401634,16.5720215 7.63100364,16.5720215 C9.94131747,16.5720215 13.5740745,18.0189098 15.2727273,19.2383478 C16.9063341,20.4110904 17.8192888,21.6191425 17.8192888,22.2727273 C17.8192888,22.851103 17.5998367,23.3223168 17.1609325,23.6863688 Z" id="Combined-Shape" fill="#1F75BC"></path>
                <path d="M21.1722666,11.5715748 L19.7757407,12.4079185 C20.135106,12.453105 20.3977521,12.5457714 20.5636789,12.6859178 C21.0622008,13.1069831 21.1052811,13.6605511 21.0622008,13.9975973 C20.9491631,14.8819665 20.4728893,15.8550311 19.4109791,15.8550311 C18.945345,15.8550311 18.4125951,15.5806913 18.1408626,15.1342271 C18.0465934,14.9793402 17.9861322,14.7035956 17.9594789,14.3069936 C17.6062064,14.2272392 17.2898242,14.1241071 17.0103323,13.9975973 C16.7308404,13.8710874 16.302646,13.6371927 15.725749,13.2959131 C15.3913229,13.3602868 15.1331733,13.3769824 14.9513002,13.3459999 C14.769427,13.3150173 14.5354037,13.2144788 14.2492303,13.0443844 C14.10156,13.4192467 13.9065026,13.720784 13.664058,13.9489963 C13.0722543,14.5060591 12.3303342,14.6127831 11.6325521,14.3069936 C10.6537288,13.8780433 10.3006841,13.0589295 10.5734179,11.8496523 L9.90860481,11.5194939 C9.24367438,11.9285556 8.60466709,11.9285556 7.99158294,11.5194939 C7.37849878,11.1104323 7.17257341,10.4285977 7.37380681,9.47399026 L7.14233627,8.80831694 L7.81668973,7.77127415 L8.78702834,7.96251105 L9.26514014,7.47001054 L10.7681909,8.16770656 L11.6266089,8.16770656 L12.8785049,7.77127415 C13.4797371,7.71593812 14.0506587,7.71593812 14.5912696,7.77127415 C15.1318806,7.82661017 15.8519547,7.95875431 16.751492,8.16770656 L16.751492,7.52709618 L18.0621157,8.19194841 L19.9545439,10.7360912 L19.9545439,11.0428288 C20.2146805,11.0316957 20.4447956,11.0695703 20.6448891,11.1564527 C20.8449827,11.2433351 21.0207751,11.3817091 21.1722666,11.5715748 Z M13.8638969,9.31270377 L14.6031168,10.1095568 L17.2276488,9.98302997 L16.8188608,8.71686261 C16.6164092,8.6686579 16.345878,8.6258567 16.0072672,8.58845902 C15.6686564,8.55106133 15.3266118,8.52620692 14.9811333,8.51389579 C14.846449,8.56801492 14.6690273,8.67377976 14.4488683,8.8311903 C14.2287093,8.98860083 14.0337188,9.14910533 13.8638969,9.31270377 Z M13.5455467,8.92827499 L14.4774502,8.32973594 L13.0602405,7.85557322 L11.8526837,8.2733541 C11.9559587,8.38342867 12.1572572,8.50049334 12.4565794,8.62454809 C12.7559016,8.74860285 13.1188907,8.84984515 13.5455467,8.92827499 Z" id="Combined-Shape" fill="#B9CFF0"></path>
                <circle id="Oval" fill="#B9CFF0" cx="5.09090909" cy="5.09090909" r="2.54545455"></circle>
            </g>
        </g>
    </g>
</svg>