<?xml version="1.0" encoding="UTF-8"?>
<svg width="28px" height="28px" viewBox="0 0 28 28" version="1.1" xmlns="http://www.w3.org/2000/svg" xmlns:xlink="http://www.w3.org/1999/xlink">
    <!-- Generator: Sketch 49.2 (51160) - http://www.bohemiancoding.com/sketch -->
    <title>王者荣耀</title>
    <desc>Created with Sketch.</desc>
    <defs></defs>
    <g id="Page-1" stroke="none" stroke-width="1" fill="none" fill-rule="evenodd">
        <g id="游戏筛选" transform="translate(-158.000000, -189.000000)">
            <g id="王者荣耀" transform="translate(158.000000, 189.000000)">
                <path d="M6.47351618,5.29513657 C8.18585677,3.80136229 10.3466217,2.80862216 12.7272727,2.54545455 L12.7272727,6.36363636 L8.53886275,6.36363636 L6.47351618,5.29513657 Z M6.04927134,5.68431617 L7.70890933,9.76240069 C6.97787471,10.9143976 6.55454545,12.2808923 6.55454545,13.7462608 C6.55454545,14.8598233 6.7990088,15.9162883 7.23719546,16.8649158 L5.09090909,21 L12.3139552,21 C12.4503306,21.0315723 12.5881412,21.0593978 12.7272727,21.0833622 L12.7272727,25.3147267 L12.7272727,27.9300906 C12.3600094,27.0861328 11.5060881,25.4622721 9.71836941,24.5575947 C5.51320006,22.8617952 2.54545455,18.74252 2.54545455,13.9300906 C2.54545455,10.6919645 3.88910239,7.76766406 6.04927134,5.68431617 Z" id="Combined-Shape" fill="#1C87C9"></path>
                <path d="M15.2727273,6.36363636 L15.2727273,2.6153639 L15.2727273,0 C15.6399906,0.843957806 16.4939119,2.46781853 18.2816306,3.37249597 C22.4867999,5.06829542 25.4545455,9.18757066 25.4545455,14 C25.4545455,19.8959774 20.9999369,24.7515252 15.2727273,25.3846361 L15.2727273,21.5209313 C15.8766244,21.4169143 16.4556358,21.2401551 17.0004149,21 L22.9090909,21 L20.9239125,16.92679 C21.2604746,16.0779395 21.4454545,15.1524869 21.4454545,14.1838298 C21.4454545,12.4657071 20.8634948,10.8835083 19.8859425,9.62360073 L22.1764027,10.7516713 L19.9171254,5.2976962 L18.8263272,6.36363636 L15.2727273,6.36363636 Z" id="Combined-Shape" fill="#CB2828"></path>
                <path d="M15.2727273,11.4545455 L14,14 L15.2727273,12.7272727 L18.4545455,12.7272727 L19.0909091,12.0909091 L19.0909091,15.2727273 L18.4545455,14.6363636 L15.2727273,14.6363636 L15.2727273,18.4545455 L19.7272727,18.4545455 L20.3636364,17.8181818 L21.6363636,20.3636364 L6.36363636,20.3636364 L7.63636364,17.8181818 L8.27272727,18.4545455 L12.7272727,18.4545455 L12.7272727,14.6363636 L9.54545455,14.6363636 L8.90909091,15.2727273 L8.90909091,12.0909091 L9.54545455,12.7272727 L12.7272727,12.7272727 L12.7272727,8.90909091 L8.90909091,8.90909091 L8.27272727,9.54545455 L7,6.36363636 L8.27272727,7 L19.0909091,7 L19.7272727,6.36363636 L21,9.54545455 L19.7272727,8.90909091 L15.2727273,8.90909091 L15.2727273,11.4545455 Z" id="Combined-Shape" fill="#E5B362"></path>
            </g>
        </g>
    </g>
</svg>