<?xml version="1.0" encoding="UTF-8"?>
<svg width="28px" height="28px" viewBox="0 0 28 28" version="1.1" xmlns="http://www.w3.org/2000/svg" xmlns:xlink="http://www.w3.org/1999/xlink">
    <!-- Generator: Sketch 49.2 (51160) - http://www.bohemiancoding.com/sketch -->
    <title>绝地求生</title>
    <desc>Created with Sketch.</desc>
    <defs></defs>
    <g id="Page-1" stroke="none" stroke-width="1" fill="none" fill-rule="evenodd">
        <g id="游戏筛选" transform="translate(-283.000000, -302.000000)" fill="#E5B362">
            <g id="绝地求生" transform="translate(283.000000, 302.000000)">
                <path d="M3.54545455,5.09090909 L24.4545455,5.09090909 C25.0068302,5.09090909 25.4545455,5.53862434 25.4545455,6.09090909 L25.4545455,21.9090909 C25.4545455,22.4613757 25.0068302,22.9090909 24.4545455,22.9090909 L3.54545455,22.9090909 C2.9931698,22.9090909 2.54545455,22.4613757 2.54545455,21.9090909 L2.54545455,6.09090909 C2.54545455,5.53862434 2.9931698,5.09090909 3.54545455,5.09090909 Z M3.81818182,7.63636364 L3.81818182,20.3636364 L24.1818182,20.3636364 L24.1818182,7.63636364 L3.81818182,7.63636364 Z" id="Combined-Shape"></path>
                <rect id="Rectangle-4" x="1.27272727" y="8.90909091" width="2.54545455" height="2.54545455"></rect>
                <rect id="Rectangle-4" x="1.27272727" y="16.5454545" width="2.54545455" height="2.54545455"></rect>
                <rect id="Rectangle-4" x="24.1818182" y="8.90909091" width="2.54545455" height="2.54545455"></rect>
                <rect id="Rectangle-4" x="24.1818182" y="16.5454545" width="2.54545455" height="2.54545455"></rect>
                <rect id="Rectangle-3" x="5.09090909" y="8.90909091" width="1.27272727" height="10.1818182"></rect>
                <path d="M10.8181818,8.90909091 L10.8181818,17.5181818 C10.8181818,17.6838672 10.9524964,17.8181818 11.1181818,17.8181818 L11.7909091,17.8181818 C11.9565945,17.8181818 12.0909091,17.6838672 12.0909091,17.5181818 L12.0909091,8.90909091 L13.3636364,8.90909091 L13.3636364,18.0909091 C13.3636364,18.6431938 12.9159211,19.0909091 12.3636364,19.0909091 L10.5454545,19.0909091 C9.9931698,19.0909091 9.54545455,18.6431938 9.54545455,18.0909091 L9.54545455,8.90909091 L10.8181818,8.90909091 Z" id="Combined-Shape"></path>
                <path d="M22.9090909,11.4545455 L21.6363636,11.4545455 L21.6363636,12.7272727 L22.9090909,12.7272727 L22.9090909,18.0909091 C22.9090909,18.6431938 22.4613757,19.0909091 21.9090909,19.0909091 L20.0909091,19.0909091 C19.5386243,19.0909091 19.0909091,18.6431938 19.0909091,18.0909091 L19.0909091,9.90909091 C19.0909091,9.35680616 19.5386243,8.90909091 20.0909091,8.90909091 L21.9090909,8.90909091 C22.4613757,8.90909091 22.9090909,9.35680616 22.9090909,9.90909091 L22.9090909,11.4545455 Z M20.6636364,10.1818182 C20.4979509,10.1818182 20.3636364,10.3161328 20.3636364,10.4818182 L20.3636364,17.5181818 C20.3636364,17.6838672 20.4979509,17.8181818 20.6636364,17.8181818 L21.3363636,17.8181818 C21.5020491,17.8181818 21.6363636,17.6838672 21.6363636,17.5181818 L21.6363636,10.4818182 C21.6363636,10.3161328 21.5020491,10.1818182 21.3363636,10.1818182 L20.6636364,10.1818182 Z" id="Combined-Shape"></path>
                <rect id="Rectangle-3" x="14.3818184" y="8.90909091" width="1.27272727" height="10.1818182"></rect>
                <path d="M5.09090909,14 L7.33636364,14 C7.50204906,14 7.63636364,13.8656854 7.63636364,13.7 L7.63636364,10.4818182 C7.63636364,10.3161328 7.50204906,10.1818182 7.33636364,10.1818182 L5.09090909,10.1818182 L5.09090909,8.90909091 L7.90909091,8.90909091 C8.46137566,8.90909091 8.90909091,9.35680616 8.90909091,9.90909091 L8.90909091,14.2727273 C8.90909091,14.825012 8.46137566,15.2727273 7.90909091,15.2727273 L5.09090909,15.2727273 L5.09090909,14 Z" id="Combined-Shape"></path>
                <path d="M14.3818184,17.8181818 L16.627273,17.8181818 C16.7929584,17.8181818 16.927273,17.6838672 16.927273,17.5181818 L16.927273,14.3 C16.927273,14.1343146 16.7929584,14 16.627273,14 L14.3818184,14 L14.3818184,12.7272727 L17.2000002,12.7272727 C17.752285,12.7272727 18.2000002,13.174988 18.2000002,13.7272727 L18.2000002,18.0909091 C18.2000002,18.6431938 17.752285,19.0909091 17.2000002,19.0909091 L14.3818184,19.0909091 L14.3818184,17.8181818 Z" id="Combined-Shape"></path>
                <path d="M14.3818184,12.7272727 L16.627273,12.7272727 C16.7929584,12.7272727 16.927273,12.5929582 16.927273,12.4272727 L16.927273,10.4818182 C16.927273,10.3161328 16.7929584,10.1818182 16.627273,10.1818182 L14.3818184,10.1818182 L14.3818184,8.90909091 L17.2000002,8.90909091 C17.752285,8.90909091 18.2000002,9.35680616 18.2000002,9.90909091 L18.2000002,13 C18.2000002,13.5522847 17.752285,14 17.2000002,14 L14.3818184,14 L14.3818184,12.7272727 Z" id="Combined-Shape"></path>
                <polygon id="Rectangle-4" points="4.70909097 14 7.63636364 14 7.63636364 15.2727273 4.70909097 15.2727273"></polygon>
                <rect id="Rectangle-4" x="14" y="12.7272727" width="2.92727267" height="1.27272727"></rect>
                <polygon id="Rectangle-4" points="21.2545222 12.7272727 22.9090909 12.7272727 22.9090909 14 21.2545222 14"></polygon>
            </g>
        </g>
    </g>
</svg>