<?xml version="1.0" encoding="UTF-8" standalone="no"?>
<!DOCTYPE svg PUBLIC "-//W3C//DTD SVG 1.1//EN" "http://www.w3.org/Graphics/SVG/1.1/DTD/svg11.dtd">
<svg width="100%" height="100%" viewBox="0 0 28 28" version="1.1" xmlns="http://www.w3.org/2000/svg" xmlns:xlink="http://www.w3.org/1999/xlink" xml:space="preserve" xmlns:serif="http://www.serif.com/" style="fill-rule:evenodd;clip-rule:evenodd;stroke-linejoin:round;stroke-miterlimit:1.41421;">
    <g id="英雄联盟">
        <path id="Combined-Shape" d="M14,25.455C7.674,25.455 2.545,20.326 2.545,14C2.545,7.674 7.674,2.545 14,2.545C20.326,2.545 25.455,7.674 25.455,14C25.455,20.326 20.326,25.455 14,25.455ZM13.364,5.727L6.236,5.727L8.273,7.891L8.273,19.345L6.364,22.273L18.2,22.273L21.636,17.818L13.364,17.818L13.364,5.727Z" style="fill:rgb(152,104,61);"/>
        <g id="Combined-Shape1" serif:id="Combined-Shape">
            <path id="path-1" d="M10.687,22.273L17.313,22.273C16.289,22.683 15.171,22.909 14,22.909C12.829,22.909 11.711,22.683 10.687,22.273ZM7.67,20.269C6.076,18.66 5.091,16.445 5.091,14C5.091,11.437 6.173,9.127 7.906,7.501L8.273,7.891L8.273,19.345L7.67,20.269ZM10.687,5.727C11.711,5.317 12.829,5.091 14,5.091C18.92,5.091 22.909,9.08 22.909,14C22.909,17.161 21.263,19.937 18.782,21.518L21.636,17.818L13.364,17.818L13.364,5.727L10.687,5.727Z" style="fill:rgb(0,91,95);"/>
            <path id="path-11" serif:id="path-1" d="M10.687,22.273L17.313,22.273C16.289,22.683 15.171,22.909 14,22.909C12.829,22.909 11.711,22.683 10.687,22.273ZM7.67,20.269C6.076,18.66 5.091,16.445 5.091,14C5.091,11.437 6.173,9.127 7.906,7.501L8.273,7.891L8.273,19.345L7.67,20.269ZM10.687,5.727C11.711,5.317 12.829,5.091 14,5.091C18.92,5.091 22.909,9.08 22.909,14C22.909,17.161 21.263,19.937 18.782,21.518L21.636,17.818L13.364,17.818L13.364,5.727L10.687,5.727Z" style="fill:rgb(23,33,45);fill-opacity:0.6;"/>
        </g>
        <path id="Combined-Shape2" serif:id="Combined-Shape" d="M12.727,18.454L20.364,18.454L17.828,21.636L12.727,21.636L7.636,21.636L8.909,19.727L8.909,7.636L7.636,6.364L12.727,6.364L12.727,18.454Z" style="fill:rgb(229,179,98);"/>
    </g>
</svg>
