<?xml version="1.0" encoding="UTF-8"?>
<svg width="20px" height="20px" viewBox="0 0 20 20" version="1.1" xmlns="http://www.w3.org/2000/svg" xmlns:xlink="http://www.w3.org/1999/xlink">
    <!-- Generator: Sketch 49.3 (51167) - http://www.bohemiancoding.com/sketch -->
    <title>足球</title>
    <desc>Created with Sketch.</desc>
    <defs></defs>
    <g id="雷竞技2.0（调整v01）" stroke="none" stroke-width="1" fill="none" fill-rule="evenodd">
        <g id="icon切图" transform="translate(-324.000000, -884.000000)" fill="#04B46E">
            <g id="足球" transform="translate(324.000000, 884.000000)">
                <g id="Group-2" transform="translate(1.818182, 1.818182)">
                    <path d="M4.87007233,0.698008793 C5.07125569,0.608849696 5.27670555,0.527564915 5.48603089,0.454545455 L10.8776055,0.454545455 C11.0869308,0.527564915 11.2923807,0.608849696 11.493564,0.698008793 L8.18181818,3.18181818 L4.87007233,0.698008793 Z M5,7.27272727 L8.18181818,5 L11.3636364,7.27272727 L10,10.9090909 L6.36363636,10.9090909 L5,7.27272727 Z M6.45197088,15.9090909 L1.36363636,12.2727273 L5.08833452,12.2727273 L6.45197088,15.9090909 Z M9.88314542,15.9090909 L11.2467818,12.2727273 L15,12.2727273 L9.88314542,15.9090909 Z M13.1822621,6.81818182 L14.0909091,3.63636364 L15.9090909,8.63636364 L13.1822621,6.81818182 Z M3.18181818,6.81818182 L0.454989347,8.63636364 L2.27317116,3.63636364 L3.18181818,6.81818182 Z" id="Combined-Shape"></path>
                    <path d="M8.18181818,16.3636766 C3.66312477,16.3636766 0,12.7005518 0,8.18185839 C0,3.66316498 3.66312477,4.02045378e-05 8.18181818,4.02045378e-05 C12.7005116,4.02045378e-05 16.3636364,3.66316498 16.3636364,8.18185839 C16.3636364,12.7005518 12.7005116,16.3636766 8.18181818,16.3636766 Z M8.18181818,15 C11.947396,15 15,11.947396 15,8.18181818 C15,4.41624034 11.947396,1.36363636 8.18181818,1.36363636 C4.41624034,1.36363636 1.36363636,4.41624034 1.36363636,8.18181818 C1.36363636,11.947396 4.41624034,15 8.18181818,15 Z" id="Combined-Shape"></path>
                </g>
            </g>
        </g>
    </g>
</svg>