<?xml version="1.0" encoding="UTF-8"?>
<svg width="28px" height="28px" viewBox="0 0 28 28" version="1.1" xmlns="http://www.w3.org/2000/svg" xmlns:xlink="http://www.w3.org/1999/xlink">
    <!-- Generator: Sketch 49.2 (51160) - http://www.bohemiancoding.com/sketch -->
    <title>暴风英雄</title>
    <desc>Created with Sketch.</desc>
    <defs></defs>
    <g id="Page-1" stroke="none" stroke-width="1" fill="none" fill-rule="evenodd">
        <g id="游戏筛选" transform="translate(-158.000000, -528.000000)">
            <g id="暴风英雄" transform="translate(158.000000, 528.000000)">
                <g id="Group" transform="translate(2.545455, 1.272727)">
                    <polygon id="Path" fill="#B9CFF0" points="0 5.78512397 11.4545455 0 22.9090909 5.78512397 22.9090909 19.6694215 11.4545455 25.4545455 0 19.6694215"></polygon>
                    <path d="M9.32039752,9.4418218 L11.5276756,3.81818182 C18.0332106,4.54614877 20.9464379,7.90820905 20.2673577,13.9043627 C18.4252858,8.55541178 14.7762991,7.06789816 9.32039752,9.4418218 Z M15.8446933,12.1378866 L19.6112694,16.8612655 C15.728064,22.1312406 11.3598207,22.9731394 6.50653947,19.3869619 C12.0599028,20.4661562 15.1726207,18.0497978 15.8446933,12.1378866 Z M9.72972665,16.6579771 L3.75587254,17.5582382 C1.13354292,11.5602962 2.58855884,7.35633714 8.1209203,4.94636105 C4.40962891,9.21611757 4.9458977,13.1199896 9.72972665,16.6579771 Z" id="Combined-Shape" fill="#1C87C9"></path>
                </g>
            </g>
        </g>
    </g>
</svg>