<?xml version="1.0" encoding="UTF-8" standalone="no"?>
<!DOCTYPE svg PUBLIC "-//W3C//DTD SVG 1.1//EN" "http://www.w3.org/Graphics/SVG/1.1/DTD/svg11.dtd">
<svg width="100%" height="100%" viewBox="0 0 28 28" version="1.1" xmlns="http://www.w3.org/2000/svg" xmlns:xlink="http://www.w3.org/1999/xlink" xml:space="preserve" xmlns:serif="http://www.serif.com/" style="fill-rule:evenodd;clip-rule:evenodd;stroke-linejoin:round;stroke-miterlimit:1.41421;">
    <g id="魔兽争霸3">
        <path id="Combined-Shape" d="M6.364,5.727L4.067,5.727L5.719,8.931L6.364,11.579L6.364,24.182L7.636,25.455L1.273,25.455L2.545,24.182L2.545,3.818L1.273,2.545L7.636,2.545L6.364,3.818L6.364,5.727ZM21.636,5.727L21.636,3.818L20.364,2.545L26.727,2.545L25.455,3.818L25.455,24.182L26.727,25.455L20.364,25.455L21.636,24.182L21.636,11.659L22.303,8.886L23.927,5.727L21.636,5.727ZM14.009,21.798L13.438,19.494L14,17.818L14.629,19.646L14.009,21.798ZM14.127,22.272L15.909,22.263L15.909,24.182L17.182,25.455L10.818,25.455L12.091,24.182L12.091,22.273L14.127,22.273L14.127,22.272ZM12.091,11.317L12.091,3.818L10.818,2.545L17.182,2.545L15.909,3.818L15.909,11.375L14,6.364L12.091,11.317Z" style="fill:rgb(109,160,191);"/>
        <path id="Combined-Shape1" serif:id="Combined-Shape" d="M9.97,8.061L11.548,14.372L14,7.636L16.451,14.377L18.03,8.061L17.182,6.364L22.909,6.364L21.636,8.909L18.714,20.599L19.091,21.636L15.909,21.636L14.636,21.636L15.182,19.455L14,15.909L12.818,19.455L13.364,21.636L9.545,21.636L8.903,21.636L9.284,20.59L6.367,8.911L6.364,8.909L5.091,6.364L10.818,6.364L9.97,8.061Z" style="fill:rgb(219,177,48);"/>
    </g>
</svg>
